<?xml version="1.0" encoding="UTF-8"?>
<svg id="Layer_1" xmlns="http://www.w3.org/2000/svg" version="1.1" viewBox="0 0 2339.45 903.8">
  <!-- Generator: Adobe Illustrator 30.1.0, SVG Export Plug-In . SVG Version: 2.1.1 Build 136)  -->
  <defs>
    <style>
      .st0 {
        stroke: #b42f25;
        stroke-width: 10px;
      }

      .st0, .st1 {
        fill: none;
        stroke-miterlimit: 10;
      }

      .st2 {
        fill: #fbfbec;
      }

      .st1 {
        stroke: #fbfbec;
        stroke-width: 25px;
      }

      .st3 {
        fill: #fbfbed;
      }

      .st4 {
        fill: #0f1534;
      }

      .st5 {
        fill: #f0a51f;
      }
    </style>
  </defs>
  <rect class="st4" width="2339.45" height="903.8"/>
  <rect class="st1" x="51.93" y="53.61" width="2235.58" height="796.59" rx="31" ry="31"/>
  <g>
    <g>
      <path class="st2" d="M218.06,349.7v-176.14h36.76v176.14h-36.76Z"/>
      <path class="st2" d="M296.69,349.7v-176.14h39.82l69.95,115.64v-115.64h36.76v176.14h-39.82l-69.95-115.64v115.64h-36.76Z"/>
      <path class="st2" d="M477.42,336.42v-19.91h79.14c5.11,0,7.66-2.55,7.66-7.66v-18.38c0-4.93-2.13-7.74-6.38-8.42l-49.78-10.21c-20.42-4.08-30.63-17.78-30.63-41.1v-14.3c0-28.59,14.3-42.89,42.89-42.89h58.46l17.1,13.27v19.91h-74.03c-5.11,0-7.66,2.55-7.66,7.66v16.59c0,4.77,2.13,7.57,6.38,8.42l49.78,9.96c20.42,4.08,30.63,17.79,30.63,41.1v16.34c0,28.59-14.3,42.89-42.89,42.89h-63.56l-17.1-13.27Z"/>
      <path class="st2" d="M620.37,206.74v-33.19h143.98v33.19h-53.61v142.95h-36.76v-142.95h-53.61Z"/>
      <path class="st2" d="M762.31,342.8l52.33-169.25h56.16l52.33,169.25-4.6,6.89h-30.63l-10.72-35.74h-68.92l-10.72,35.74h-30.63l-4.6-6.89ZM818.22,280.77h49.01l-22.46-74.03h-4.08l-22.46,74.03Z"/>
      <path class="st2" d="M948.66,349.7v-176.14h39.82l69.95,115.64v-115.64h36.76v176.14h-39.82l-69.95-115.64v115.64h-36.76Z"/>
      <path class="st2" d="M1122.24,206.74v-33.19h143.97v33.19h-53.61v142.95h-36.76v-142.95h-53.61Z"/>
      <path class="st2" d="M1351.99,306.81v-90.37c0-28.59,14.29-42.89,42.89-42.89h58.2c28.59,0,42.89,14.3,42.89,42.89v90.37c0,28.59-14.3,42.89-42.89,42.89h-58.2c-28.59,0-42.89-14.3-42.89-42.89ZM1388.75,308.85c0,5.11,2.55,7.66,7.66,7.66h55.14c5.11,0,7.66-2.55,7.66-7.66v-94.45c0-5.11-2.55-7.66-7.66-7.66h-55.14c-5.11,0-7.66,2.55-7.66,7.66v94.45Z"/>
      <path class="st2" d="M1535.27,349.7v-176.14h120.49v33.19h-83.73v43.4h76.07v33.19h-76.07v66.37h-36.76Z"/>
      <path class="st2" d="M1684.36,349.7v-176.14h120.49v33.19h-83.73v43.4h76.07v33.19h-76.07v66.37h-36.76Z"/>
      <path class="st2" d="M1833.43,349.7v-176.14h120.49v33.19h-83.73v35.74h76.07v33.19h-76.07v40.84h83.73v33.19h-120.49Z"/>
      <path class="st2" d="M1987.62,349.7v-176.14h85.77c28.59,0,42.89,14.3,42.89,42.89v29.1c0,21.28-7.91,34.55-23.74,39.82l28.85,56.67-4.34,7.66h-31.65l-31.14-61.27h-29.87v61.27h-36.76ZM2024.38,255.24h47.48c5.11,0,7.66-2.55,7.66-7.66v-33.19c0-5.11-2.55-7.66-7.66-7.66h-47.48v48.5Z"/>
    </g>
    <g>
      <path class="st5" d="M374.36,558.25v-152.94h104.62v28.81h-72.7v37.68h66.05v28.81h-66.05v57.63h-31.92Z"/>
      <path class="st5" d="M546.8,521.01v-115.7h31.92v117.47c0,4.43,2.22,6.65,6.65,6.65h43.44c4.43,0,6.65-2.22,6.65-6.65v-117.47h31.92v115.7c0,24.82-12.41,37.24-37.24,37.24h-46.1c-24.82,0-37.24-12.41-37.24-37.24Z"/>
      <path class="st5" d="M746.72,558.25v-152.94h74.47c24.82,0,37.24,12.41,37.24,37.24v25.27c0,18.47-6.87,30-20.61,34.58l25.05,49.21-3.77,6.65h-27.48l-27.04-53.19h-25.93v53.19h-31.92ZM778.64,476.24h41.23c4.43,0,6.65-2.22,6.65-6.65v-28.81c0-4.43-2.22-6.65-6.65-6.65h-41.23v42.11Z"/>
      <path class="st5" d="M934.67,558.25v-152.94h34.58l60.73,100.4v-100.4h31.92v152.94h-34.58l-60.73-100.4v100.4h-31.92Z"/>
      <path class="st5" d="M1142.58,558.25v-152.94h31.92v152.94h-31.92Z"/>
      <path class="st5" d="M1242.32,434.13v-28.81h125.01v28.81h-46.55v124.12h-31.92v-124.12h-46.55Z"/>
      <path class="st5" d="M1433.82,521.01v-115.7h31.92v117.47c0,4.43,2.22,6.65,6.65,6.65h43.44c4.43,0,6.65-2.22,6.65-6.65v-117.47h31.92v115.7c0,24.82-12.41,37.24-37.24,37.24h-46.1c-24.82,0-37.24-12.41-37.24-37.24Z"/>
      <path class="st5" d="M1633.74,558.25v-152.94h74.47c24.82,0,37.24,12.41,37.24,37.24v25.27c0,18.47-6.87,30-20.61,34.58l25.05,49.21-3.77,6.65h-27.48l-27.04-53.19h-25.93v53.19h-31.92ZM1665.66,476.24h41.23c4.43,0,6.65-2.22,6.65-6.65v-28.81c0-4.43-2.22-6.65-6.65-6.65h-41.23v42.11Z"/>
      <path class="st5" d="M1821.7,558.25v-152.94h104.62v28.81h-72.7v31.03h66.05v28.81h-66.05v35.46h72.7v28.81h-104.62Z"/>
    </g>
  </g>
  <rect class="st0" x="84.62" y="82.52" width="2170.2" height="738.76" rx="31" ry="31"/>
  <g>
    <polygon class="st3" points="1168.26 612.94 1188.71 661.57 1241.28 665.99 1201.35 700.46 1213.39 751.83 1168.26 724.5 1123.14 751.83 1135.18 700.46 1095.24 665.99 1147.81 661.57 1168.26 612.94"/>
    <polygon class="st3" points="1017.9 642.56 1029.63 670.45 1059.77 672.98 1036.88 692.75 1043.78 722.2 1017.9 706.54 992.03 722.2 998.93 692.75 976.04 672.98 1006.18 670.45 1017.9 642.56"/>
    <polygon class="st3" points="891.43 642.56 903.15 670.45 933.3 672.98 910.4 692.75 917.3 722.2 891.43 706.54 865.55 722.2 872.45 692.75 849.56 672.98 879.7 670.45 891.43 642.56"/>
    <polygon class="st3" points="1321.54 642.56 1309.82 670.45 1279.67 672.98 1302.57 692.75 1295.67 722.2 1321.54 706.54 1347.42 722.2 1340.52 692.75 1363.41 672.98 1333.27 670.45 1321.54 642.56"/>
    <polygon class="st3" points="1448.02 642.56 1436.3 670.45 1406.15 672.98 1429.05 692.75 1422.14 722.2 1448.02 706.54 1473.9 722.2 1466.99 692.75 1489.89 672.98 1459.75 670.45 1448.02 642.56"/>
  </g>
</svg>