<?xml version="1.0" encoding="UTF-8"?>
<svg id="Layer_1" xmlns="http://www.w3.org/2000/svg" version="1.1" xmlns:xlink="http://www.w3.org/1999/xlink" viewBox="0 0 2500 2500">
  <!-- Generator: Adobe Illustrator 30.1.0, SVG Export Plug-In . SVG Version: 2.1.1 Build 136)  -->
  <defs>
    <style>
      .st0 {
        stroke: #b42f25;
        stroke-miterlimit: 10;
        stroke-width: 27px;
      }

      .st0, .st1 {
        fill: none;
      }

      .st2, .st3 {
        fill: #101634;
      }

      .st2, .st4 {
        fill-rule: evenodd;
      }

      .st5 {
        fill: #fbfbec;
      }

      .st6 {
        clip-path: url(#clippath-1);
      }

      .st7, .st4 {
        fill: #6491cb;
      }

      .st8 {
        fill: #fbfbed;
      }

      .st9 {
        clip-path: url(#clippath-3);
      }

      .st10 {
        fill: #b42f25;
      }

      .st11 {
        fill: #0f1534;
      }

      .st12 {
        fill: #f0a51f;
      }

      .st13 {
        fill: #f8f6e9;
      }

      .st14 {
        clip-path: url(#clippath-2);
      }

      .st15 {
        clip-path: url(#clippath);
      }
    </style>
    <clipPath id="clippath">
      <rect class="st1" x="837.33" y="578.2" width="740.36" height="339.68"/>
    </clipPath>
    <clipPath id="clippath-1">
      <rect class="st1" x="825.46" y="549.4" width="765" height="350.77"/>
    </clipPath>
    <clipPath id="clippath-2">
      <rect class="st1" x="337.42" y="753.65" width="1827.34" height="673.81"/>
    </clipPath>
    <clipPath id="clippath-3">
      <rect class="st1" x="234.15" y="730.44" width="1971.53" height="716.79"/>
    </clipPath>
  </defs>
  <circle class="st5" cx="1250" cy="1250" r="1110.91"/>
  <path class="st11" d="M556.54,2028.22h1386.92c214.09-190.9,348.9-468.81,348.9-778.22,0-575.68-466.68-1042.36-1042.36-1042.36S207.64,674.32,207.64,1250c0,309.41,134.82,587.32,348.9,778.22Z"/>
  <path class="st10" d="M2175.22,907.22c-139.28-375.81-500.97-643.65-925.22-643.65S464.06,531.42,324.78,907.22h1850.44Z"/>
  <path class="st5" d="M2183.16,929.44c-31.03-90.35-74.8-174.77-129.18-251.11H446.03c-54.38,76.34-98.15,160.77-129.18,251.11h1866.31Z"/>
  <circle class="st12" cx="1250" cy="745.28" r="379.17"/>
  <g>
    <path class="st13" d="M1651.21,794.56c-3.05,1.36-6.09,2.74-9.03,4.29-1.15,1.58-2.28,3.17-3.42,4.75,4.66-2.41,9.16-5.23,13.52-8.33-.37-.21-.73-.44-1.06-.71Z"/>
    <path class="st13" d="M2163.07,1363.14c-3.09-8.4,3.74-24.02,2.58-33.09-2.49-19.49,17.78-46.81,8.31-63.76-22.6-40.49-19.52-38.08-24.06-48.66-8.87-20.68-18.97-40.84-29.62-60.65-4.13-7.68-8.34-15.2-12.81-22.54-.15-.15-.29-.31-.44-.47-1.08-.47-2.1-1.22-2.94-2.33-1.15-1.51-2.33-3-3.5-4.51-.56-.61-1.14-1.2-1.7-1.81-6.15-6.7-11.62-13.59-16.48-20.97-16.88-20.52-34.51-40.42-52.41-60.05-2.13-2.33-2.27-5.07-1.3-7.34-12.14-11.68-24.05-23.56-34.93-36.39-.52-.32-1.05-.62-1.57-.94-8.09-4.98-15.16-10.94-21.96-17.2-3.4-.09-6.84-.14-10.29-.22-12.13,9.57-24.55,18.59-39.05,24.44-2.28.92-4.31.38-5.81-.91-11.45,11.26-24.27,20.39-40.4,20.88-4.64.14-7.71-4.53-6.68-8.78.21-.88.48-1.71.78-2.53-9.33-3.26-18.31-7.72-26.75-12.55-1.26-.72-2.51-1.46-3.76-2.2-15.31-8.48-30.18-17.48-39.82-32.83-4.15-6.61,5.8-14.44,10.89-8.4,5.6,6.66,12.08,12.55,19.03,17.86-1.91-2.12-3.79-4.24-5.65-6.32-8.31-9.29-17.35-17.55-26.27-26.04.95,2.49,1.76,5.04,2.36,7.7,1.71,7.59-8.61,12.25-12.67,5.34-10.07-17.12-25.07-31.06-33.27-49.3-1.71-3.79.26-8.6,3.62-10.15-1.49-2.08-2.97-4.16-4.44-6.26-9.09-12.94-18.81-25.52-26.46-39.39-.67-1.21-1.33-2.43-1.99-3.64-.98.3-2.04.36-3.15.05-2.37,1.75-5.63,1.97-8.4-.83-4.39-4.43-8.59-9.1-12.57-13.94-12.07-9.7-23.51-21.13-30.79-34.27-14.18,11.44-29.82,21.14-47.26,24.11-.43.07-.86.11-1.27.12-.5.38-1,.77-1.52,1.14-7.61,5.35-17.08,9.62-24.79,15.52,1.08,3.43,1.74,7.09,1.87,11.05.09,2.96-2.22,5.99-5.09,6.68-22.43,5.4-33.99-13.96-44.88-30.59-5.6-4.97-10.77-10.31-14.71-16.96-2.68-4.53.76-9.7,5.19-10.35-.81-.72-1.62-1.44-2.42-2.17-21.21-19.47-40.52-40.87-60.84-61.25-1.58-1.64-2.12-3.49-1.95-5.24-4.32-.25-8.59-.78-12.84-1.81-11.52.89-22.94,1.39-33.1-5.43-.31-.21-.6-.44-.91-.65-2.93.85-6.3.08-7.74-3.07-.87-1.89-1.67-3.87-2.44-5.91-3.31-3.53-6.36-7.35-9.33-11.24-10.87-2.98-21.39-8.3-32.06-12.61.52,1.01,1.07,2.02,1.57,3.04,3.56,7.2-4.89,13.55-10.89,8.4-10.39-8.9-18.63-19.87-26.38-31.07-6.09-8.8-12.26-17.15-18.96-25.32-2.66.45-5.65-.41-7.5-2.94-5.6-7.69-10.45-15.86-15.03-24.19-10.71-13.87-20.14-28.59-26.34-45.25-.43-1.14-.52-2.2-.38-3.17-2.31-3.56-4.74-7.03-7.31-10.42-.87-.07-1.77-.3-2.68-.76-9.79-4.87-12.69,1.4-16.7,9.66-4.82,9.94-10.29,19.25-17.18,27.93-8.69,10.97-18.89,20.27-28.89,29.98-6.86,6.66-12.7,14.38-18.56,21.89-11.92,15.28-23.53,31.7-38.59,44.1-10.2,8.4-23.68,16.08-36.73,9.28-9.8-5.11-15.68-15.75-21.22-24.83-1.89-3.1-3.74-6.3-5.95-9.19-2.3,2.38-4.72,4.65-7.25,6.8.72,1.46.93,3.13.37,4.71-4.35,12.25-11.22,23.29-20.27,32.64-3.56,3.68-8.83,1.99-11.04-1.93-8.54,15.43-18.09,30.83-31.79,42.08-8.07,6.62-16.98,11.37-27.07,14.1-10.61,2.87-21.72,4.18-31.83,8.68-21.72,9.68-32.88,33.06-53.71,44.14-3.27,1.74-7.6.87-9.48-2.49-5.53-9.85-14.39-16.59-22.61-24.06-7.64-6.96-13.78-14.65-18.06-24.08-1.26-2.78-2.19-5.98-3.03-9.34-1.64-1.36-3.26-2.74-4.85-4.15-2.23-1.99-4.75-4.24-7.23-6.7-8.27,7.55-17.51,14.19-26.83,19.9-4.93,6.74-10.7,12.86-16.96,18.47.24,1.81-.2,3.76-1.68,5.49-16.19,19.04-26.4,43.05-46.37,58.78-5.94,14.61-14.49,28.26-23.81,40.89-15.45,20.94-33.46,39.16-53.27,55.96-7.97,6.76-18.2,16.21-29.28,22-4.72,11.15-10.48,21.88-17.48,31.71-3.73,5.24-13.13,3.89-12.92-3.5.09-3.25.5-6.46,1.14-9.61-15.48-15.95-30-33.16-47.5-46.95-1.84.62-3.59,1.76-5.19,3.63-5.21,6.07-8,14.23-11.5,21.32-11.25,22.8-30.51,41.77-46.33,61.4-17.87,22.18-35.77,44.37-52.71,67.27-8.03,10.86-15.8,21.89-23.22,33.17-4.64,7.05-9.49,14.57-15.94,20.12-1.59,1.37-3.31,2.61-5.14,3.63-3.27,4.29-6.93,8.22-10.93,11.59-4.56,3.86-10.73,8.26-17.09,6.53-7.97-2.17-8.88-11.18-8.38-18.07.51-7.04,9.38-8.51,12.67-4.34-.06-.42-.12-.84-.16-1.27-2.54-3.32-4.49-7.2-6.04-10.8-4.69-10.89-6.27-23.21-9.09-34.94-3.94,9.84-8.36,19.45-13.52,28.55-.73,4.37-1.95,8.46-3.52,12.39-.7,7.36-2.12,14.66-3.61,21.93,2.3-.05,4.61,1.21,6,3.22,4.4,2.45,5.98,9.59.61,12.19-.93.45-1.84.94-2.74,1.44-4.07,9.51-7.96,19.21-10.98,29.13,1.15.4,2.3.83,3.43,1.29.22-.28.44-.56.65-.84,4.88-6.27,15.11,1.93,10.89,8.4-1.15,1.76-2.37,3.5-3.62,5.22,1.69,1.54,2.57,3.9,1.85,6.68-1.27,4.94-3.07,9.59-5.22,14.07.61,1.35.79,2.87.29,4.42-1.88,5.83-4.35,11.14-7.25,16.06.03.2.08.39.11.59.39,3.47.17,6.45-.51,9.06,4.51,1.32,7.68,8.05,3.41,11.87-1.33,1.19-2.68,2.38-4.02,3.56,1.35,1.34,2.24,3.21,2.35,5.09.37,6.16-1.49,11.73-4.4,16.89,1.23,2.59,1.1,5.81-1.33,7.73-.99.78-2,1.56-3.02,2.34,2.97,2.5,4.2,7.04.56,9.98-5.56,4.48-11.22,9.51-17.15,14.2.41.67.72,1.39.86,2.14,4.1-1.98,9.7-.21,9.7,5.87,0,2.2.02,4.84,0,7.75.64-.47,1.25-.95,1.9-1.41,5.04-3.56,11.8,2.35,10.18,7.83-2.39,8.09-7.28,14.93-13.02,21-.07,4.96-.26,9.94-.69,14.8,1.79,2.16,2.48,5.2.69,7.76-.74,1.06-1.48,2.13-2.23,3.19-2.35,11.68-7.15,21.86-16.82,28.28h1760.28c1.11-1.46,2.86-2.46,5.25-2.46h101.97c1.2-11.79,1.95-23.62,2.43-35.46-.63-14.28-.09-28.68.36-43.02Z"/>
    <g class="st15">
      <path class="st4" d="M938.43,839.39c1.7-14.25,14.59-15.34,38.68-3.13,4.66-10.01,10.85-13.57,18.57-10.6,55.03,86.83,109.57,56.73,126.61,92.18,6.7-3.65-3.99-22.72-8.74-26.88-25.44-21.62-49.52-51.22-72.33-88.62-9.92-29.68,64.03.51,78.95,38.16-2.2-23.15-12.97-53.52-32.31-91.17-4.33-46.39,102.95,116.86,117.11,109.15,10.18-60.72,111.01,43.41,124.49,55.62,1.61,1.02-89.55-159.59-43.84-107.02,16.62,19.08,37.22,29.85,61.82,32.31-24.85-25.78-47.57-56.65-68.35-92.69-20.86-12.55-31.29-27.56-31.2-45.03-14.93-89.04,35.02,21.63,55.03,26.97,1.02-17.05-4.58-39.18-16.7-66.41-6.61-14.84-33.33-29.84-21.88-50.97,7.89-14.75,53.68,70.39,60.89,81.92,37.31,64.7,30.19-13.14,67.25,34.43-1.19,9.92-.68,19.84,1.61,29.68,16.96,21.45,36.55,42.99,58.85,64.62,5.26-.34-2.12-17.98-22.3-53,13.31-.25,25.69,2.04,37.06,6.87,51.81,78.28,93.2,102.54,114.92,100.93-35.03-53.26-75.32-87.61-111.7-131.11-15.94-.51-29.78-5.72-50.98-7.33-11.28-11.11-23.63-51.26-37.79-54.23-15.77-3.31-35.38,4.22-44.71-5.7-22.64-40.11-38.49-72.23-57.58-92.07-10.77-12.47-25.69-11.39-34.68-.62-37.31,35.61-73.19,77.84-107.53,126.61-13.57,23.58-26.29,21.79-38.16-5.34-7.89-17.89-15.43-26.8-22.72-26.46-24.51,32.57-52.24,66.82-83.19,102.78-13.4,3.47-26.63,6.28-39.77,8.48-41.47,34.43-80.14,72.42-116.01,113.89,9.07,3.73,23.57-7.29,43.41-32.82,3.14,2.12,7.38,2.12,12.72,0,35.2-44.44,83.95,24.93,73.27-2.38-2.46-6.19-12.04-16.54-28.75-31.04h0Z"/>
    </g>
    <g class="st6">
      <path class="st2" d="M929.46,818.9c1.75-14.69,15.05-15.84,39.9-3.24,4.82-10.33,11.21-14,19.16-10.94,56.79,89.61,113.05,58.54,130.64,95.12,6.91-3.76-4.12-23.45-9.01-27.74-26.26-22.31-51.1-52.85-74.64-91.44-10.23-30.62,66.07.53,81.47,39.38-2.27-23.89-13.39-55.21-33.34-94.07-4.46-47.86,106.23,120.58,120.84,112.62,10.51-62.65,114.54,44.8,128.46,57.4,1.66,1.05-92.4-164.68-45.24-110.42,17.15,19.68,38.42,30.8,63.79,33.33-25.63-26.6-49.09-58.45-70.53-95.64-21.53-12.95-32.29-28.44-32.2-46.47-15.4-91.87,36.14,22.31,56.79,27.83,1.05-17.59-4.72-40.43-17.24-68.51-6.82-15.32-34.39-30.81-22.57-52.59,8.14-15.22,55.39,72.63,62.82,84.53,38.5,66.76,31.15-13.57,69.39,35.52-1.22,10.24-.69,20.48,1.67,30.62,17.5,22.14,37.71,44.37,60.72,66.68,5.43-.35-2.19-18.55-23.01-54.69,13.74-.27,26.52,2.09,38.24,7.08,53.46,80.77,91.35,120.32,113.75,118.66-36.14-54.95-72.89-104.92-110.43-149.81-16.45-.52-35.52-1.57-57.4-3.24-11.64-11.47-26.86-42.52-41.48-45.59-16.27-3.42-29.22-10.33-38.85-20.57-23.36-41.39-44.89-72.45-64.58-92.93-11.11-12.86-21.35-13.82-30.62-2.72-38.5,36.76-75.51,80.33-110.95,130.64-14,24.33-27.12,22.49-39.38-5.51-8.14-18.46-15.92-27.66-23.45-27.3-25.29,33.6-53.91,68.95-85.84,106.05-13.82,3.59-27.48,6.48-41.04,8.75-42.78,35.53-82.69,74.73-119.7,117.52,9.37,3.85,24.33-7.52,44.8-33.86,3.24,2.19,7.62,2.19,13.13,0,36.31-45.85,86.63,25.72,75.6-2.46-2.54-6.38-12.43-17.06-29.66-32.03Z"/>
    </g>
    <g class="st14">
      <path class="st7" d="M2174.5,1481.56c-4.61-10.14-12.68-16.36-20.52-23.05,4.14-2.53,7.83-2.3,11.52-2.07,2.07.23,4.61,1.61,5.76-1.39.92-2.53.69-5.07-1.62-6.91-1.61-1.39-3.46-2.77-5.07-4.15-4.61-3.92-13.6-5.99-5.99-15.21,1.39-1.61-.46-4.38-2.3-5.53-9.22-5.53-10.15-15.67-15.45-23.97,4.84-.46,8.53,3.45,12.45.23-2.3-3-4.15-5.99-6.22-8.99-2.3-3.23-5.07-6.22-7.14-9.68-1.16-1.84-5.08-3.69-.46-6.92,8.07-5.53,3-11.52-1.16-16.36-1.61-1.84-4.38-1.84-3-5.53,4.61-11.99,1.39-23.51-8.76-32.04-8.99,15.45-2.77,36.42-19.36,49.1,5.53,2.77,11.99-.92,13.6,4.38,1.39,4.84-3.69,8.07-7.37,11.29-1.85,1.61-3.46,3.91-5.08,5.76-2.99,3.91-9.45,8.76-6.68,12.44,3,4.38,8.99-1.15,13.6-2.3.23,0,.69.92,1.16,1.39-2.08,3-3.92,6.22-6.46,8.76-2.07,2.3-3.69,6.68-7.6,5.07-2.77-1.16-5.99-3.69-5.31-7.6.92-5.08-2.3-7.38-5.53-9.68-5.53-3.92-8.99-9.22-11.06-15.68,4.61-1.61,10.6,3.46,12.68-.92,2.3-4.85-3-9.22-5.99-13.37-3.23-4.14-6.92-8.07-10.38-11.99,4.85-3.22,11.52-.45,11.99-6.22.46-4.85-5.07-6.46-8.3-9.22-3.23-2.77-7.6-4.61-8.76-10.15,8.99,1.85,8.99-5.76,9.91-10.6.92-5.3-5.53-7.15-8.53-10.6-1.62-1.85-7.84-4.85-3.46-6.69,9.22-3.92,2.3-7.6.69-10.6-3-6.22-8.07-11.29-7.84-18.9,0-2.77.23-6.91-3.22-7.6-4.38-.92-4.61,3.92-5.99,6.69-3,5.99-.46,14.29-6.92,19.13-3,2.3-5.99,5.53-5.99,8.99.23,4.84,7.15,1.84,8.76,4.61-3.92,8.76-10.6,13.83-18.44,18.21,4.85,5.3,11.07,3.69,15.91,5.76-2.53,10.83-9.22,14.52-18.9,10.37-6.22-2.77-11.99-6.68-17.75-10.37-4.15-2.53.92-2.53.92-3,.69-7.83,6.92-5.76,11.29-7.15,3.92-1.15,5.99-5.76,1.62-6.68-13.14-3-16.83-17.06-29.04-20.98,6.69-5.76,13.37-9.91,22.59-12.68-18.67-11.06-27.43-26.05-26.51-46.32,0-2.31-1.38-4.85-2.77-6.92-4.38-7.15-5.76-14.98-6.45-23.05-.46-4.38,1.84-9.22-1.62-13.6-5.99,3.45-8.07,8.07-9.45,14.29-1.84,8.07-3.91,16.59-10.37,22.36-5.99,5.07-11.29,20.05-7.15,26.51,5.08,7.83,2.31,12.21-4.61,15.67-9.22,4.61-12.68,12.68-13.6,23.28h13.37c2.53,0,5.07-.46,5.99,3.23.92,3.23-.69,4.61-3.46,5.76-11.06,4.15-13.14,17.06-23.28,22.36,8.76,6.92,19.14,4.38,27.43,8.99-9.68,9.45-23.97,11.76-31.12,23.97-5.53,9.68-3,16.13,8.3,17.52,1.84.23,4.61-1.16,5.53,1.84-12.68,15.45-13.14,15.68-27.89,5.07-.69-.45-1.39-.69-1.85-1.15-3.23-3.23-10.6-4.15-8.99-9.68,1.16-4.61,7.61-2.3,11.76-3.23.46-.23.92-.92,1.16-1.15-5.07-10.84-14.52-19.14-21.44-31.58,4.38.69,5.99.92,7.84,1.15,3.22.69,7.6,1.39,8.98-1.61,1.85-4.15-1.15-8.53-2.77-12.45-1.84-4.84-4.14-.92-6.68,0-3.46,1.39-5.53-2.07-7.84-4.38-3.91-3.69,2.08-4.85,1.85-5.08-2.3-3.91,6.91-5.53,2.07-9.21-10.83-8.3-10.6-21.9-16.83-32.5-2.07.69-2.77,2.77-3.69,4.84-5.07,9.45-4.38,21.9-14.52,28.81-1.61,1.16-.92,3.23.92,4.61,8.3,5.3,4.38,8.98-1.39,12.67-2.77,1.84-5.3,3.92-8.07,5.76-2.53,1.62-5.3,3.69-4.61,6.92.69,4.38,4.84,2.3,7.37,2.3,7.84,0,7.15,3.23,3.23,7.83-3.92,4.85-8.07,9.68-11.99,14.52-3,3.69-6.68,8.53-5.53,12.45,1.16,4.61,7.15.69,10.83,2.07,1.16.46,2.54.69,4.15.92-5.3,11.76-23.05,12.45-23.28,28.12-5.76-13.14-11.76-26.05-18.44-41.26-2.3,8.76-3.45,14.29-5.76,19.83-1.61,4.14-1.61,9.45-6.91,10.14-5.76.46-8.76-3.92-11.52-8.53,11.06-3,11.99-5.3,5.76-15.45-2.07-3.45-5.07-6.22-7.83-9.21-2.31-2.54-3.46-5.54.45-7.15,10.84-4.38,5.76-9.68.92-14.75-2.77-2.77-6.69-5.3-4.38-10.14,4.38-8.76-.69-17.29-.23-25.82.23-2.54-1.62-4.38-3.92-4.61-2.77-.23-3.23,2.3-3.69,4.61-.45,3.22-.69,6.68-2.07,9.45-4.38,9.22-2.77,20.52-9.68,29.04-4.14,5.3-.45,6.46,3.92,6.46,7.15,0,4.15,4.15,3,6.92-2.77,6.91-7.83,3.68-12.45,1.84-1.15,7.6,1.16,13.83,3.46,19.82,1.62,4.61.46,7.15-3.23,8.99-2.77,1.38-6.22,5.99-8.3,3-4.61-6.69-14.98-11.76-12.22-20.52,2.77-8.53,0-14.06-3.91-20.28-2.77-4.15-4.61-7.6,2.53-9.68,2.53-.69,6.91,0,7.37-3.45.69-4.15-3.91-4.61-6.68-6.22-5.08-3.23-10.15-7.84-11.29-13.14-.92-4.38,6.91-3.46,10.14-5.99.46-.45.69-1.15,1.16-2.3-20.98-8.3-19.14-28.58-23.51-46.33-10.83,6.22-6.69,18.21-9.91,26.74-3.91,9.91-8.76,17.29-18.9,22.82,3,1.16,3.91,1.84,4.84,1.84,5.07.46,10.6,1.62,11.52,6.69.92,5.3-4.84,7.38-8.99,9.91-5.07,3-11.29,4.61-14.98,11.52,7.38,1.38,13.6,2.53,20.52,3.91-8.07,13.84-23.05,20.75-30.88,34.11,5.99,2.08,10.83-.22,15.91-1.15,2.07-.46,4.61-1.16,5.99,1.38,1.16,2.31-.69,4.38-2.07,5.76-3.91,3.46-7.83,6.69-11.99,9.91-4.14,3-10.37,5.53-8.53,11.29,1.62,4.84,7.84,1.61,11.76,2.3,1.62.23,3.69-.92,4.61,1.62-11.07,12.44-19.83,12.9-28.36,1.61,10.84-5.99,11.07-7.14,1.62-16.13-1.39-1.39-2.77-2.53-3.92-3.92-1.61-2.07-3.91-3.69.69-5.53,6.22-2.3,3.92-6.69.46-8.99-5.99-4.38-7.83-9.91-8.99-16.59-.92-4.61-1.84-9.91-6.46-13.83-7.14,10.37-5.3,24.43-15.21,32.73-1.15.92-.69,3,.69,3.92,8.07,5.07,1.39,8.3-1.61,11.52-3.69,3.69-8.99,10.6-6.92,12.45,8.3,7.14-.69,8.53-3,11.98-2.07,3-4.84,5.54-7.6,7.84-2.53,2.3-3.92,7.37-8.3,5.53-3.92-1.62-5.3-5.99-5.3-10.15,0-5.76-1.85-10.6-5.53-15.44-2.54,3.23-2.77,6.68-3.46,10.37-1.39,9.45-4.85,10.83-11.99,4.61-4.61-4.14-10.15-8.3-11.99-15.9,4.38.23,8.07.46,11.76.46,2.07,0,4.84,1.15,5.76-1.62.92-2.53-1.16-4.14-2.77-5.53-4.38-3.91-9.45-7.14-13.37-11.52-3.23-3.68-8.76-6.45-7.84-13.14,4.61-.23,8.99,5.07,11.76.69,3.46-5.08-3.23-7.15-5.53-10.38-2.07-3-4.61-5.53-6.92-8.53-1.38-1.84-2.53-4.84.69-5.07,9.22-1.16,4.38-5.07,3-9.45-2.53-7.37-14.52-13.14-4.84-23.28.23-.23,0-.69-.23-1.15-5.07-8.76-4.61-19.82-12.22-28.35-.69,1.61-.92,2.53-1.38,3.22-8.07,15.91-2.77,36.19-16.83,50.25-1.62,1.61-2.31,5.3,1.84,5.76,11.76.92,4.61,6.22,2.07,9.68-2.3,3.23-5.99,5.3-8.76,8.3-5.3,6.22-3.91,9.68,3.92,11.29,2.07.46,6.69-.92,5.99,2.77-1.39,6.22-5.53,11.29-12.45,12.45-6.69,1.15-8.99-5.08-8.3-9.22,1.39-9.45.23-17.75-2.3-26.97-3.46-12.22-.23-26.74-13.14-35.72-1.38-.92-2.07-4.15-1.84-6.22,1.16-6.92-2.3-12.22-5.76-17.29-3.46-5.08-3.69-15.45-8.76-14.98-6.92.46-4.38,10.37-5.76,15.9-1.61,5.76-14.75,10.15-3,18.21.23.23-1.15,3.23-2.3,4.61-4.84,5.99-9.91,11.76-15.21,17.29-.92,1.16-1.38,4.38-4.61.92-8.3-8.99-19.59-14.98-26.74-25.35-1.61-2.3-4.61-4.38-3.46-7.6,1.39-3.69,5.08-2.08,7.61-2.08,5.99.23,11.76.69,15.67-5.53-8.76-5.76-14.75-14.98-23.97-20.52-3.46-1.84-5.08-5.76-4.38-9.45.69-4.85,5.76-3,8.99-4.38,2.77-1.15,6.46.92,9.45-2.3-4.61-6.92-14.29-5.76-18.67-12.45-3-4.38-10.83-7.14-9.22-12.44,1.39-4.61,8.76.45,12.91-1.62.69-.23,1.15-.46,2.53-1.15-2.53-3.92-4.15-8.3-7.83-11.52-10.84-9.45-16.37-22.13-20.28-35.73-.69-2.77,2.07-8.07-3.23-7.6-5.3.23-3.23,5.76-3.69,8.99-1.61,9.68-2.07,19.82-9.22,27.43-2.77,3-7.37,5.07-6.68,9.45,1.15,5.3,7.14,1.84,8.99,3.23,2.07,20.05-19.14,20.97-26.51,33.88,6.91,4.38,14.98.23,21.66,4.38-5.53,9.91-12.67,17.06-21.2,23.05-4.85,3.46-13.84,5.53-11.99,12.22,1.61,5.76,10.37,3.23,15.9,3.69,2.07.23,4.84-.92,5.99,1.38,1.62,3.23-1.84,4.38-3.23,6.22-7.37,8.76-17.52,14.29-21.66,26.74-3.23,9.45-.46,10.6,6.91,11.29,2.08.23,5.99-.46,5.76,3.23-.23,5.99-5.76,7.14-9.68,9.45-4.61,2.77-8.76,7.37-14.98,5.07-.46-.23-1.39-1.39-1.16-1.62,1.16-2.3.92-3.91,0-5.3,8.53-3.91,8.99-4.14,12.22-8.07-3.46-3.23-7.83-5.53-12.45-7.6,0-2.08-1.84-4.15-5.53-7.61,2.08,0,3.92,0,5.76-.23,3.23-.46,7.15,1.62,9.22-1.84,2.3-3.92-2.3-5.53-3.46-8.53-3-6.69-8.07-11.06-14.52-14.29-.92-.46-2.07-1.16-3-1.62-1.61-1.15-3.22-2.3-4.61-3.68-1.39-1.62-2.3-3.69-2.3-6.46,5.76-3.46,11.29,1.39,17.52.92-2.08-5.3-4.15-10.38-6.22-15.68.69-.46,1.15-1.15,1.38-1.84.69-3-2.3-4.61-4.61-6.22-3.23-8.07-6.46-16.36-9.91-24.44,2.08-.69,4.61-2.07,7.15-5.3-4.84-3.91-9.45-8.07-14.06-11.99-2.53-6.45-5.3-12.9-7.83-19.59,12.9-3.91,2.77-8.99.92-13.14-1.84-4.61-5.3-8.76-7.14-13.6-.46-1.15-.92-2.53-1.39-3.68,7.15-8.07,13.14-16.83,19.14-25.82-8.07,5.53-14.98,12.21-21.67,19.13-2.3-6.92-4.14-13.83-4.38-21.21,0-1.84-.46-4.84-3.46-4.84-2.77,0-3.69,2.53-3.69,4.61-.23,9.21-8.3,14.98-8.76,23.5-5.99-3.68-10.6-8.3-14.75-13.37.23,0,.23-.23.46-.23,14.52-10.14,26.97-22.82,38.5-36.18,6.45-7.61,11.06-17.29,21.66-17.98,17.06-.92,26.97-11.52,36.42-23.51,2.3-2.77,5.76-4.61,8.3-7.14,10.37-10.84,25.12-18.44,28.58-35.27,5.07,9.91,5.53,38.03,1.84,47.25-1.61,3.92-4.61,4.38-7.14,5.99-5.76,3.23-11.99,5.99-16.37,12.91,7.38-.92,11.76-6.46,18.67-6.22-2.53,20.75-21.67,31.12-28.58,49.1,10.83-.69,18.9-5.99,26.73-11.06,6.69-4.38,13.37-8.99,19.83-13.83,2.07-1.62,3.45-3.46,6.22-.46,11.29,12.9,25.59,23.28,32.27,39.87,1.62,3.92,4.61,7.37,7.38,10.83,16.59,20.75,36.65,38.26,55.31,57.16,7.84,7.84,17.06,14.29,29.74,19.59-3-7.83-5.07-14.06-7.6-20.05-7.38-18.2-16.83-35.72-21.67-55.08-.69-3-3-6.69.23-8.99,3-2.08,6.22-.69,9.22,1.15,8.99,5.76,18.67,10.15,27.2,16.6,13.14,9.91,23.97,22.13,34.34,35.26.69-5.3,2.07-11.06,0-15.21-10.38-21.21-15.68-44.95-29.04-64.77-16.37-24.21-16.14-26.28,6.45-45.64,1.16-.92,2.31-1.84,3.46-2.77,14.98-12.91,24.21-29.74,35.27-45.87-3-1.16-3.92.92-5.3,1.84-21.44,15.45-40.8,33.43-65.24,44.72-3.22,1.38-5.53,3.91-9.45.23-10.83-9.45-20.52-20.06-32.96-27.2-4.14-2.3-4.14-5.07-.92-8.76,5.76-6.69,11.06-13.6,16.36-20.75,31.35-41.25,66.15-79.75,100.26-118.71,20.98-23.97,38.73-50.94,65.46-69.37,2.53-1.62,3.69-6.69,7.38-4.85,3.68,1.85,2.53,6.69,2.07,10.15-.92,4.61-2.53,9.21-4.61,13.37-4.85,9.22-8.53,18.67-10.38,28.81-3.46,21.21-13.83,39.18-25.12,56.47-3,4.61-7.15,8.99-8.07,16.14,12.67-3.46,22.13-10.15,31.12-17.52,6.46-5.53,9.91-2.77,12.45,3,3.91,8.99,6.22,18.9,10.83,27.43,3.46,6.22,2.3,10.15-2.77,13.6-12.22,8.76-18.67,21.2-24.9,34.11-8.53,17.29-17.06,34.81-25.58,52.09-6.22,12.9-12.44,26.05-18.67,39.18,13.37-10.14,25.12-21.43,36.65-32.96,5.3-5.31,8.07-3.69,9.45,2.77,2.07,9.68,2.3,18.9-2.53,28.58-7.61,15.44-15.91,30.42-24.2,45.64-2.53,4.61-6.22,8.99-5.76,15.9,19.82-14.52,40.34-26.51,57.39-43.56,3-3,4.61-3.68,7.15.92,6.46,11.99,13.83,23.28,19.82,35.5,4.38,8.53,3.69,16.83-5.53,23.05-5.07,3.46-9.45,8.07-13.37,12.9-14.52,17.52-28.81,35.27-43.1,53.02-7.37,9.22-16.83,17.06-20.97,29.04,9.68-13.6,26.05-16.14,38.26-25.35,20.52-15.45,42.65-28.81,60.85-47.02,2.53-2.53,5.76-7.15,11.06-2.3,19.6,18.67,43.56,30.65,66.38,44.25,10.15,5.99,21.67,9.91,35.27,15.91-5.99-9.91-10.14-16.83-14.52-23.97,17.98,3.23,34.34,8.99,50.94,14.29-13.37-24.66-21.43-50.01-30.19-75.14-8.53-24.2-16.36-49.33-35.27-68.69-5.07-5.3-7.6-12.9-5.3-21.89,1.61,1.38,3,1.84,3.69,3,11.29,20.74,31.35,31.35,49.78,43.79,13.37,8.76,19.83,21.21,18.9,37.34-.23,3.23-.46,6.69,0,9.91.46,2.77-2.3,7.6,3.23,7.37,4.14,0,4.84-3.91,5.3-7.37.92-6.46,1.84-12.9,2.3-19.59.46-6.69,3.92-8.3,9.45-5.99,11.99,4.84,24.89,5.07,37.11,9.45,8.53,3,17.98,2.77,26.97,3.68,3.45.46,6.91-1.61,3.45-4.84-7.6-6.92-8.98-17.98-15.67-24.89-20.52-20.98-30.43-48.18-45.18-72.38-5.08-8.3-5.08-19.82-.23-26.05,14.52-19.13,33.65-33.2,56.01-43.1,4.15,20.75,5.53,40.57-3,59.93-3,6.69.23,10.15,7.15,7.37,8.53-3.45,7.6-.69,6.68,6.46-1.38,12.45-7.83,22.59-11.52,34.11-.69,2.31-4.14,5.31-1.15,7.84,2.53,2.07,4.61-.92,6.91-2.08,5.31-2.3,10.84-4.61,15.91-7.37,4.84-2.53,8.07-2.3,9.91,3.69,7.15,24.66,25.82,40.57,44.49,55.54,26.05,20.75,53.7,39.88,75.84,65.24,8.99,10.37,20.97,13.37,33.88,15.67.92-9.22-8.07-13.83-9.22-22.13,16.59,5.99,22.59,23.28,37.8,33.19-3.23-10.6-5.3-18.9-8.53-27.19-8.07-21.67-20.98-41.03-29.74-62.24-8.76-21.66-21.2-40.79-36.42-58.54-12.91-14.98-26.97-29.51-36.42-47.02-11.76-21.66-26.05-40.8-44.03-57.16-11.29-10.14-20.52-21.89-28.35-34.81-2.53-4.14-5.76-7.6-8.3-11.52-2.23-3.08-4.52-5.13-6.86-6.24-7.1,11.03-16.58,20.51-28.28,26.63-4.05,2.12-7.86,0-9.55-3.11-9.58,6.73-19.58,12.88-29.31,19.37-23.51,15.91-23.74,15.91-43.8-5.53-20.74-22.13-39.41-46.33-67.76-60.39-7.6-3.68-12.22-11.29-15.21-19.59-4.38-11.99-9.45-23.97-17.75-33.88-24.66-29.97-46.32-62.69-73.99-90.36-6.22-6.22-10.37-5.99-16.13.23-12.91,13.6-24.67,28.35-39.87,39.64-12.45,9.45-22.82,20.75-31.58,33.66-8.3,11.99-15.68,25.12-26.28,35.26-41.26,40.11-74.68,86.9-110.41,131.62-5.07,6.22-7.37,5.76-12.45.92-10.14-10.14-20.97-19.59-31.35-29.27-11.52-10.61-16.36-10.84-26.51.22-15.9,16.83-33.19,32.27-47.94,50.48-12.22,14.98-24.66,26.74-46.1,31.81-20.52,4.84-36.18,19.36-50.24,35.5-27.66-47.49-55.09-95.2-82.52-142.91-3.23-5.76-5.99-11.76-10.83-16.59-5.99-5.99-11.76-6.22-18.21-.46-17.75,15.91-35.95,31.58-53.93,47.25-10.6,9.21-11.76,8.99-20.05-2.31-13.37-18.44-25.58-37.8-40.34-55.08-16.36-19.14-30.2-39.65-39.87-62.7-7.61-18.44-19.36-34.11-33.43-48.4-14.98-15.21-33.19-26.96-45.18-45.18-8.99-13.83-17.29-28.12-26.97-41.49-9.45-13.14-16.36-12.9-26.5-.69-36.88,43.79-71.23,89.43-102.11,137.84-22.59,35.49-49.33,67.53-84.82,91.27-4.15,2.77-7.15,5.07-10.61-.46-3.17-5.01-7.04-9.34-11.19-13.44-10.31,3.9-20.06-4.25-24.82-15.72-.6-1.44-.67-2.73-.39-3.84-3.81-2.57-7.56-5.23-11.21-8.03-.27-.21-.52-.43-.75-.66-2.89,1.19-5.88,3.88-9.26,8.04-7.14,8.76-12.9,18.67-19.36,27.89-29.51,42.18-62.46,81.6-95.2,121.24-16.59,20.05-33.88,39.87-46.79,62.92-5.07-3.91-7.6-8.53-9.45-13.37-1.29-3.31-2.53-6.63-3.73-9.96-1.81,4.46-4.47,8.57-7.95,12.31-2.41,2.6-6.23,2.45-8.87.65-4.03,1.24-9.16-2.38-9.12-6.79,0-1.15.03-2.31.06-3.46-2.53-.85-4.68-3.1-4.99-6.4-.05-.53-.07-1.06-.11-1.59-4.21,14.3-13.07,25.29-19,39.66,3.46,0,5.99-.23,8.53,0,4.15.46,10.61-2.3,12.45,1.39,2.3,4.84-3.69,8.76-6.46,12.9-1.15,1.85-3.23,3-4.84,4.61-7.6,6.91-16.83,11.29-26.97,17.75,9.68,1.38,16.14,6.68,24.67,5.53,3.23-.46,8.07-1.62,9.68,3,1.39,3.91-2.77,5.76-5.07,7.83-9.91,9.68-20.28,19.13-30.42,28.81-2.53,2.3-4.61,5.3-3,8.76,1.61,3.69,5.07,2.07,7.83,2.3,7.6.69,15.21,1.16,23.51,1.84-13.14,19.6-30.88,30.2-53.48,31.81,13.6,23.05,33.89,4.15,52.09,10.84-21.2,17.06-43.1,30.88-61.31,49.78,5.53,1.62,9.91.46,16.36-.92-8.07,8.53-5.07,10.6,3.23,9.68,10.14-.92,20.28-2.07,32.27-3.23-15.21,21.21-36.42,32.5-56.71,47.95,17.98,3.68,32.04-7.38,48.87-5.76-7.83,8.3-16.83,12.22-23.74,18.67-13.6,12.68-24.21,28.12-39.19,39.42-2.53,1.84-5.53,3.22-6.46,7.6h881.88c-.23.23-.69.46-.92.69,342.06-.69,684.81-.69,1027.79-.69ZM2038.74,1361.24c-6.69,14.29-11.52,14.75-24.67,1.61,8.76,1.39,16.14-4.14,24.67-1.61ZM1450.04,1338.88c1.84-.69,4.61-.69,5.76,1.84.92,1.84,0,3.46-1.16,5.07-4.61,6.69-13.6,8.53-17.29,16.37-.92,2.07-3.91-.69-5.76-1.62-8.07-3.92-13.6-10.83-17.51-19.13,11.98-1.85,24.2,1.61,35.95-2.53ZM425.72,1343.49c.92-2.3,2.77-1.38,6.46,0,3.22,1.16,8.3.23,13.37,0,3-.23,7.14-3.46,8.76.69,1.61,4.14.69,8.76-2.77,12.22-2.77,2.77-5.07,6.22-10.15,3.91-6.45-2.77-9.91-8.53-14.52-12.9-1.15-.69-1.61-2.77-1.15-3.92ZM445.08,1390.51c-5.76-.92-15.45,2.3-15.21-5.99.23-6.92,9.91-4.15,15.21-5.76,3.46,2.07,9.68-2.53,10.37,3.46.46,5.76-3.91,8.98-10.37,8.3ZM529.21,1350.64c-10.6.69-16.59-5.99-23.97-13.84,8.76-.23,13.83,9.22,22.13,1.85,2.77-2.3,8.07,3,8.76,7.6.69,4.61-3.45,4.15-6.91,4.38ZM580.61,1365.15c-1.61-.22-2.53-4.61-1.16-6.91,3.46-5.3,7.84-3,13.37-1.16-4.61,3.69-6.46,9.22-12.22,8.07ZM710.61,1392.82c-6.69,4.14-12.68,7.83-4.84,17.06-11.76-6.46-5.99-14.29-3.46-21.44,1.15-3.45,5.53-3.68,8.76-1.84,3,1.84,1.61,5.07-.46,6.22ZM696.55,1366.08c-11.52,1.85-11.52-8.76-12.68-17.06,10.83-1.84,20.98-3.46,33.88-5.76-6.91,10.37-10.37,21.21-21.2,22.82ZM777.46,1381.75c10.14,3.46,19.59.46,30.19,2.53-15.67,16.83-18.9,16.59-30.19-2.53ZM871.96,1248.06c-4.15,7.61-5.99,14.98-7.15,22.59-.69,4.85-1.15,10.38-7.37,10.38-5.99.23-9.45-4.15-10.38-9.68-1.38-6.92-4.14-13.14-9.68-18.9-5.99,9.21-5.07,21.89-14.98,28.58-1.84,1.15-1.61,3.23.46,4.38,10.6,5.3,1.15,9.45-1.39,12.68-4.38,6.22-13.6,6.91-19.13,13.83,6.92,4.84,14.52,1.16,22.36,3.92-9.91,9.21-19.13,18.67-23.74,32.26h17.52c-5.3,10.84-17.06,14.29-20.74,23.74-13.14-7.37-25.82-14.75-32.96-30.65h15.68c2.3,0,4.84-.69,5.3-3,.69-2.77-.69-4.61-3.69-5.76-8.07-3-12.22-11.76-20.75-14.29-2.53-.69-4.14-3.69-3.46-6.22.69-2.53,3.69-1.61,5.76-1.39,9.91.46,11.29-2.99,6.69-11.75-3-5.76-6.46-10.38-11.06-14.75-9.22-8.99-8.99-9.91,3.23-14.98,1.38-.46,2.77-.69,4.84-1.16-6.91-11.52-17.06-20.28-20.52-33.42-1.61-5.53-1.15-10.83-1.84-16.14-.23-1.61.23-3.91-2.3-4.14-2.08-.23-3.46.92-4.15,2.77-1.38,4.61-4.14,9.22-3.69,13.6.92,12.22-4.61,20.98-12.9,29.04-5.3,5.07-5.53,8.07,3,9.22,7.37.92,8.99,4.61,3.92,11.29-6.22,8.3-15.21,12.22-25.36,16.59,7.15,7.84,16.37,3.69,23.28,7.61-2.53,15.9-18.67,17.29-27.89,26.28-1.62,1.38-3.23.69-3.69-.46-4.38-9.22-13.6-13.14-20.05-20.05-4.38-4.85-3.69-8.3,4.15-8.53,6.68-.23,13.6-1.39,20.97-2.31-13.37-15.44-30.19-25.35-42.87-40.11,8.53-.69,16.6-3.91,24.67,0,2.3.92,4.38.92,5.99-1.15,2.3-2.53.46-5.08-.92-6.92-2.53-3-5.76-5.76-9.91-6.46-4.84-.69-8.98-3.23-12.44-6.45-3.69-3.23-10.83-5.31-9.68-10.84,1.39-6.22,8.76-2.53,14.52-5.76-17.29-16.36-22.36-38.26-27.43-60.62-9.45,1.62-12.91,7.84-13.6,16.6-1.15,14.06-5.53,26.5-18.44,34.57-3.92,2.53-7.38,5.99-9.22,12.67,5.07,0,9.68-.23,14.06,0,2.3,0,5.53-1.38,6.22,2.3.69,3-.46,5.08-3.23,7.15-8.07,6.46-15.68,13.83-24.66,21.66,5.07,1.85,8.53,2.54,11.75,4.15,3.23,1.61,8.54-3,9.22,2.3.69,4.85-2.3,9.91-6.22,13.37-3,2.53-6.68,5.07-10.37,5.76-11.29,2.07-11.29,11.75-14.52,19.59-1.84,4.38,1.62,4.14,3.92,4.38,5.76.46,11.76.69,18.9,1.16-6.91,9.22-15.21,15.21-24.43,22.13-.69-6.46-9.68-10.37-2.77-17.75.69-.69-.23-3.91-1.39-5.07-12.45-11.52-4.14-31.12-16.83-42.41-1.39-1.16-1.84-3.23-.46-5.07,3.46-4.61-1.38-4.15-3.23-5.76-3.68-3.23-5.3.45-6.68,2.53-4.61,6.45-6.92,13.83-7.61,21.66-1.15,12.68-5.76,23.51-17.75,30.43,4.15,4.84,11.07,2.07,14.75,6.45-3,4.38-10.14,3.23-11.52,9.45-.46,1.84-3.46,1.39-4.84.23-6.92-5.07-12.91-11.29-15.91-19.36-2.3-5.76,3.46-3.69,6.22-4.15,3.69-.46,8.76-.23,9.91-3.46,1.38-3.91-3.69-5.53-6.22-8.07-3.69-3.46-7.6-6.91-11.29-10.6-8.53-9.22-8.07-11.29,3-16.59,3.46-1.62,4.84-3.23,3.23-7.61-2.08-5.99-5.07-11.52-9.91-15.67-5.07-4.38-5.76-10.61-3-14.98,3.23-5.07,2.08-8.3-.69-11.52-6.91-7.38-7.83-16.14-7.37-25.58.23-2.53,0-5.3-.69-7.61-.92-2.77-1.61-6.45-4.84-6.91-4.38-.46-3.69,4.38-4.15,6.46-2.3,15.9-9.45,29.73-17.74,42.64,3.45,4.14,7.14.92,10.6,2.3,1.61,17.29-12.91,24.43-23.97,34.81,7.83,3.46,15.45,3.46,23.97,5.3-6.22,8.3-9.68,17.29-20.52,19.82-5.99,1.39-6.46,8.99-7.37,13.6-.69,3.69,4.84,5.53,9.21,5.53,5.99,0,6.22,2.08,3.46,7.61-3.46,6.69-9.91,9.68-14.29,14.98-3,3.45-20.75-6.92-18.9-11.07,3-7.14-2.08-7.83-7.38-11.29h15.21c3.69,0,5.99-.92,6.92-5.07.92-4.14-.69-4.61-3.69-6.91-7.83-5.99-15.21-12.91-21.67-20.05-5.76-6.46-3.91-11.3,4.38-14.3.23-.22.69,0,1.15-.22,3.92-2.08,10.84-3.69,11.3-6.46.92-5.07-6.22-4.85-9.45-7.38-5.3-4.14-10.15-8.53-14.75-13.14-4.38-4.38-4.38-7.38,2.77-8.53,5.3-.92,14.29.92,14.98-3.46,1.15-5.99-5.76-10.83-10.15-15.67-5.53-5.99-13.14-9.45-16.83-17.06-.92-1.61-3.69-3.45-.23-5.07,1.62-.69,3.69-.69,4.61,1.62,3,8.99,5.07,4.38,10.6,1.15,48.17-28.12,72.61-77.91,107.87-117.55,18.44-20.75,33.89-44.03,51.86-65.46.46,38.26-6.91,73.29-44.48,97.04,7.83,1.84,9.91-1.61,12.68-3.46,2.3-1.61,4.14-6.45,7.83-2.3,2.77,3,2.3,6.69,0,10.15-6.92,11.06-13.6,22.59-20.52,33.65-3.69,6.22-7.38,12.45-8.76,20.52,5.07.46,7.83-2.3,10.6-4.85,7.38-6.68,15.21-12.9,21.67-20.51,8.76-10.15,20.97-10.84,34.11-13.37-8.07,26.28-24.67,49.1-32.5,75.37,14.98-16.59,32.04-30.65,45.18-48.4,7.61-10.38,17.06-19.13,25.82-28.81,3.68-4.15,7.37-5.3,11.98-.69,7.61,7.38,16.83,13.6,23.51,21.67,14.75,18.2,38.96,21.2,55.55,38.26,2.77-16.83-6.46-27.89-13.37-37.8-16.37-23.97-23.05-51.86-36.65-76.75,6.46-3,8.76,1.16,10.84,4.38,4.14,6.68,7.14,6.68,11.98.45,15.21-19.59,30.89-38.95,45.18-59.7-23.51,16.14-44.95,35.04-70.07,48.63-3.46-7.14-7.37-15.67-11.76-24.2-3.69-7.38,1.16-11.99,5.53-16.14,9.45-8.76,19.82-16.36,29.27-25.12,33.65-31.35,57.39-70.3,82.75-108.1,17.98-26.74,35.96-53.48,61.08-77.68,14.06,88.97-21.66,159.27-76.07,223.81,19.37-20.05,42.42-34.57,62.7-54.4,6.45,20.28,7.6,38.72.46,58.31-16.37,43.8-40.8,82.52-72.61,116.64-2.77,3-6.46,5.76-7.15,13.6,12.45-13.14,27.66-17.29,40.57-26.05,10.38-6.91,19.36-14.98,32.04-19.59,11.76-4.38,20.52-16.13,31.58-23.28,7.38-4.61,14.52-9.68,22.59-15.21,2.07,6.92,0,12.68-2.77,17.98-11.99,22.59-22.59,45.87-36.65,67.54-14.75,22.82-23.28,48.87-38.96,71.22-1.15,1.61-5.53,5.76-.69,8.3,3.68,1.84,6.45-.69,9.45-3.23,23.05-20.05,41.95-43.8,61.08-67.53.69-.92,1.62-1.39,3.46-3,8.3,33.19,20.75,64.53,25.82,97.27-4.61-3.46-9.91-7.83-13.83-14.98ZM988.36,1420.7c-1.84,3.46-5.07,1.85-8.07,1.39-20.28-1.85-40.57-3.69-61.54-5.53,6.45-10.61,13.83-19.6,23.74-27.43-8.99-3.92-17.06-.46-24.66-.92.92-11.06,5.53-19.59,16.83-23.74-5.3-4.38-9.68-1.62-13.37-3.92,4.61-10.6,19.13-11.52,22.59-24.21-6.69.23-12.68,2.08-18.44-.92-2.3-1.16-6.46.46-6.22-4.38.23-3.23,1.85-4.61,5.53-5.53,7.15-1.61,13.14-5.99,19.6-10.83-4.15-4.61-10.15-3.23-15.91-5.3,4.61-7.38,9.22-14.29,13.37-21.44,2.77-4.84,3.22-8.3-1.62-13.37-8.53-8.76-6.46-20.52-5.07-31.35.46-4.61,2.07-8.99,3.69-14.52,14.75,11.99,27.89,23.74,25.35,44.94-.69,5.76,3.91,9.91,6.22,14.75-2.77,4.38-6.92-.69-10.61,1.84,4.61,6.92,12.91,10.15,17.06,17.52-4.38,1.39-7.83-3.68-12.67.23,5.76,5.53,11.52,11.06,17.29,16.6,3,2.77,4.84,6.45,3.46,9.68-1.16,3-5.31.46-8.07.69-2.07.23-4.38-.23-6.68,0-2.08.23-4.85-.69-5.53,2.07-.69,2.53,1.84,3.92,3.22,5.3,5.31,4.85,12.45,7.84,16.6,14.29-1.85,4.61-6.46-.92-8.53,3.46,0,0-.46,1.16-.23,1.16,5.53,4.38,11.06,26.28,8.53,32.96-1.16,3-3,3.69-5.99,3.23-3.46-.46-6.69-2.77-11.99-.92,6.69,5.76,12.68,10.83,18.44,15.9,2.77,2.07,5.76,4.61,3.68,8.3ZM996.2,1097.78c-18.9-25.82-37.34-51.86-61.08-73.53-4.15-3.92-4.61-8.07-3.69-12.91.92-4.38,5.07-3.68,8.3-3.68,8.3,0,7.38-4.15,4.15-8.99-10.15-14.98-21.21-29.04-34.11-41.72-2.31-2.3-8.53-4.84-3.46-9.22,4.61-3.91,7.14,1.85,9.22,4.61,32.73,43.33,60.39,89.9,86.67,137.14,3,5.3,5.76,10.83,5.99,17.52-6.22-.69-8.99-5.07-11.99-9.22ZM1065.81,1342.56c-7.84-.23-9.68,5.53-10.84,11.52-1.15,5.53.92,9.45,6.92,10.38,4.61.69,4.14,3.23,2.53,6.22-3.46,5.99-6.69,11.98-10.14,17.97-4.38-1.15-5.54-4.14-7.38-6.91,1.84-3.46,8.07.46,8.07-5.3,0-4.61-.92-8.53-5.07-11.3-8.07-5.53-15.9-10.83-7.6-22.59,2.77-3.91,1.61-8.3-5.3-8.53-5.31-.23-12.91,1.85-15.21-3.91-3.23-7.61,4.14-12.45,8.53-17.75,2.07-2.53,4.14-4.84,6.69-7.83-8.54-2.08-15.45,3.91-22.83,1.38,7.15-7.83,11.99-18.21,23.51-22.13-14.98-2.08-16.13-2.53-10.37-17.06,6.91-17.75,5.76-35.96,7.6-54.17,1.16-10.37.69-20.74,5.07-30.19,2.77-5.99-2.99-11.52.46-17.29,5.53,4.84,3.92,11.76,4.15,17.29,1.15,22.82,11.29,43.1,16.36,64.54,1.62,6.68,1.85,6.68-3.46,12.67-1.38,1.62-.23,3.46.46,5.07,4.38,10.38,8.53,20.98,13.6,31.12,3.45,6.91.45,7.37-6.22,5.76,6.91,10.83,7.37,21.66,8.76,32.26.69,5.53-1.85,8.99-8.3,8.76ZM1098.07,1109.99c-12.67-16.13-24.66-33.19-37.57-49.56-4.61-5.99-3.68-9.91,1.85-14.52,13.6-11.76,26.73-23.97,40.34-35.95,3.45-3,7.14-9.22,11.29-6.69,5.07,3,3.23,10.15,1.15,14.98-4.14,10.83-6.22,21.66-5.3,33.19.92,11.76,3.92,23.05,11.52,32.5.92,1.16,1.62,3.23,2.53,3.23,16.83,1.39,13.14,13.37,11.99,23.74-1.38,11.29-3.23,22.36-7.37,33.42-13.37-9.68-21.21-22.82-30.43-34.34ZM1130.81,1386.82c-3.69-4.61,3.23-9.22,6.22-13.83,1.84-3,7.14-4.61,5.76-8.53-1.85-4.61-6.92-3-10.83-3h-9.22c0-13.14,13.37-16.83,18.67-27.66-7.37.46-14.06,1.16-21.43,1.62,3.68-11.99,5.53-23.74,19.13-28.58-7.6-5.53-13.14.92-19.36-1.62,6.46-9.45,20.28-11.99,22.36-25.35-4.15-.69-8.3-1.15-12.45-2.07-2.07-.46-5.3.92-5.07-3.69.23-3-.23-5.76,3.23-7.14,3-1.16,6.46-1.85,9.22-3.46,2.77-1.62,6.22-2.77,5.53-7.15-.46-4.84-3.92-3.23-6.69-3.46-3.91-.22-3.91-2.77-3.23-5.3,1.39-6.91,1.39-14.52,4.85-20.28,7.37-12.9,4.38-26.96,7.6-40.34,2.77-11.76,1.61-23.97,6.22-38.95,10.37,31.12,12.22,61.77,20.75,89.9-.69,2.53-1.16,5.07-1.85,7.6-.92-.23-1.61-.69-2.53-.69-7.6-.69-8.07,2.53-5.3,8.53,1.16,2.77,3,5.08,4.84,7.15-.23,2.77-.23,5.76,0,8.53.92-1.84,1.85-3.69,2.77-5.53,3.69,4.14,7.61,8.07,9.68,13.6-6.69,2.07-11.52-5.07-17.98-3.23,2.77,16.83,25.82,16.83,28.35,34.34-8.3-1.84-15.21-7.6-25.12-7.14,10.6,5.53,16.59,13.6,19.59,23.28-1.84,2.3-1.15,4.84,1.62,5.99.69,3.91,1.15,8.07,1.38,12.21-.23.23-.46.69-.69.92-2.77,0-5.76-4.38-10.61-2.77,1.85,2.3,3.69,4.61,5.53,6.92-3.68,2.53-8.07,4.38-11.76,7.6,7.38,2.07,17.98-.46,19.14,4.84.92,4.38-2.53,6.69-6.69,8.76-3.23-1.38-6.46-3-9.91-4.38-1.15,4.38-.92,7.37.46,9.68,0,0-.23,0-.23.23-1.38,1.16-2.53,2.77-3.45,4.15-4.85-.23-9.22,1.15-13.84,4.14-2.07,1.39-4.61,2.53-6.68,3.92-5.99,3.92-13.84,5.3-17.98.23Z"/>
    </g>
    <g class="st9">
      <path class="st3" d="M2183.72,1457.74c4.27-2.61,8.08-2.38,11.89-2.14,2.14.24,4.76,1.66,5.95-1.43.1-.28.18-.57.26-.85-.59-.27-1.18-.63-1.74-1.1-3.86-3.24-6.83-7.04-8.53-11.67-4.59-2.95-9.4-5.82-3.07-13.49.14-.16.22-.34.3-.52-.22-.87-.47-1.73-.8-2.57-.25-.63-.54-1.23-.86-1.8-.33-.31-.66-.59-1.01-.81-6.12-3.67-8.7-9.32-11.22-15.16-.44-.87-.82-1.77-1.17-2.69-1.03-2.35-2.14-4.68-3.55-6.89.75-.07,1.48-.03,2.18.06.32-3.45,3.05-5.83,5.98-6.53-.57-.86-1.15-1.71-1.74-2.57-2.38-3.33-5.23-6.42-7.37-9.99-1.18-1.91-5.23-3.81-.47-7.13,8.32-5.71,3.09-11.89-1.19-16.89-1.67-1.9-4.52-1.9-3.09-5.7,4.75-12.37,1.42-24.26-9.04-33.07-9.27,15.94-2.85,37.58-19.98,50.66,5.71,2.85,12.37-.95,14.04,4.52,1.42,4.99-3.81,8.32-7.61,11.65-1.91,1.66-3.57,4.04-5.24,5.94-3.09,4.04-9.75,9.04-6.9,12.85,3.09,4.51,9.27-1.19,14.03-2.38.24,0,.71.95,1.19,1.43-2.14,3.09-4.04,6.42-6.66,9.03-2.14,2.38-3.81,6.9-7.85,5.24-2.85-1.19-6.19-3.81-5.47-7.85.95-5.24-2.38-7.61-5.7-9.99-5.71-4.04-9.28-9.52-11.42-16.18,4.76-1.66,10.94,3.57,13.08-.95,2.38-4.99-3.09-9.51-6.18-13.79-3.33-4.28-7.13-8.33-10.7-12.37,4.99-3.33,11.89-.48,12.37-6.42.47-5-5.24-6.66-8.56-9.51-3.33-2.86-7.85-4.76-9.04-10.47,9.28,1.91,9.28-5.94,10.23-10.94.95-5.47-5.71-7.37-8.8-10.94-1.67-1.9-8.09-4.99-3.57-6.9,9.51-4.04,2.38-7.85.71-10.94-3.1-6.42-8.33-11.65-8.09-19.5,0-2.85.24-7.13-3.33-7.85-4.52-.95-4.76,4.04-6.19,6.9-3.09,6.19-.48,14.75-7.13,19.74-3.09,2.38-6.18,5.71-6.18,9.28.24,4.99,7.37,1.9,9.03,4.75-4.04,9.04-10.94,14.28-19.02,18.79,4.99,5.47,11.41,3.81,16.41,5.95-2.61,11.18-9.51,14.98-19.5,10.7-6.42-2.85-12.36-6.9-18.31-10.7-4.28-2.61.95-2.61.95-3.09.71-8.09,7.13-5.95,11.65-7.37,4.04-1.19,6.18-5.95,1.66-6.9-13.55-3.09-17.36-17.6-29.96-21.64,6.9-5.94,13.79-10.23,23.3-13.08-19.27-11.42-28.3-26.88-27.35-47.8,0-2.38-1.43-5-2.86-7.14-4.51-7.37-5.94-15.45-6.66-23.78-.48-4.52,1.91-9.52-1.66-14.03-6.19,3.57-8.33,8.32-9.76,14.75-1.9,8.32-4.04,17.12-10.7,23.06-6.18,5.24-11.65,20.7-7.37,27.35,5.24,8.09,2.38,12.61-4.76,16.18-9.51,4.76-13.08,13.08-14.03,24.02h13.79c2.62,0,5.24-.47,6.19,3.34.95,3.33-.71,4.75-3.57,5.94-11.42,4.28-13.56,17.6-24.02,23.07,9.04,7.13,19.74,4.52,28.31,9.27-9.99,9.76-24.74,12.13-32.11,24.74-5.7,9.99-3.09,16.64,8.56,18.07,1.9.24,4.76-1.19,5.7,1.9-13.08,15.94-13.55,16.18-28.78,5.24-.71-.48-1.43-.71-1.91-1.19-3.33-3.33-10.94-4.28-9.27-9.99,1.19-4.76,7.85-2.38,12.13-3.33.48-.24.95-.95,1.18-1.19-5.23-11.18-14.98-19.74-22.12-32.58,4.52.71,6.19.95,8.09,1.18,3.33.71,7.85,1.43,9.28-1.66,1.9-4.28-1.19-8.8-2.86-12.85-1.9-4.99-4.27-.95-6.9,0-3.57,1.43-5.7-2.14-8.09-4.51-4.04-3.81,2.14-5,1.91-5.24-2.38-4.04,7.13-5.71,2.14-9.51-11.18-8.56-10.94-22.59-17.36-33.54-2.14.71-2.85,2.86-3.81,5-5.24,9.76-4.52,22.59-14.98,29.73-1.67,1.19-.95,3.33.95,4.76,8.56,5.47,4.52,9.27-1.43,13.08-2.85,1.91-5.47,4.04-8.33,5.95-2.61,1.66-5.47,3.81-4.75,7.13.71,4.52,4.99,2.38,7.61,2.38,8.08,0,7.37,3.33,3.33,8.09-4.04,5-8.33,9.99-12.37,14.98-3.09,3.81-6.9,8.8-5.7,12.85,1.18,4.75,7.37.71,11.18,2.14,1.18.48,2.61.71,4.27.95-5.47,12.13-23.78,12.84-24.02,29.01-5.95-13.55-12.13-26.88-19.03-42.57-2.38,9.03-3.57,14.75-5.94,20.45-1.67,4.28-1.67,9.75-7.14,10.46-5.94.48-9.03-4.04-11.89-8.8,11.42-3.1,12.36-5.47,5.94-15.94-2.14-3.57-5.24-6.42-8.09-9.52-2.38-2.61-3.57-5.7.48-7.37,11.18-4.51,5.95-9.99.95-15.22-2.85-2.85-6.9-5.47-4.52-10.46,4.52-9.03-.71-17.84-.24-26.64.24-2.61-1.66-4.51-4.04-4.75-2.85-.24-3.33,2.38-3.81,4.75-.48,3.33-.71,6.9-2.14,9.76-4.52,9.51-2.85,21.17-9.99,29.97-4.27,5.47-.47,6.66,4.04,6.66,7.37,0,4.28,4.28,3.1,7.13-2.86,7.13-8.09,3.81-12.85,1.9-1.19,7.85,1.19,14.28,3.57,20.46,1.67,4.76.48,7.37-3.33,9.28-2.85,1.42-6.42,6.18-8.56,3.09-4.76-6.9-15.46-12.13-12.6-21.17,2.85-8.8,0-14.51-4.04-20.93-2.86-4.28-4.76-7.85,2.61-9.99,2.61-.71,7.13,0,7.61-3.57.71-4.28-4.04-4.76-6.9-6.43-5.24-3.33-10.46-8.09-11.65-13.55-.95-4.52,7.13-3.57,10.46-6.18.48-.48.71-1.19,1.19-2.38-21.64-8.56-19.74-29.49-24.26-47.8-11.18,6.42-6.9,18.79-10.23,27.59-4.04,10.23-9.04,17.84-19.5,23.54,3.09,1.19,4.04,1.91,5,1.91,5.23.48,10.94,1.66,11.89,6.9.95,5.47-5,7.61-9.28,10.23-5.23,3.09-11.65,4.76-15.46,11.89,7.61,1.43,14.04,2.61,21.17,4.04-8.33,14.27-23.79,21.4-31.87,35.2,6.18,2.14,11.18-.24,16.41-1.19,2.14-.48,4.75-1.19,6.18,1.43,1.19,2.38-.71,4.51-2.14,5.94-4.04,3.57-8.09,6.9-12.37,10.23-4.28,3.09-10.7,5.71-8.8,11.65,1.67,5,8.09,1.67,12.13,2.38,1.67.24,3.81-.95,4.76,1.67-11.42,12.85-20.46,13.32-29.25,1.67,11.18-6.19,11.42-7.37,1.66-16.65-1.42-1.43-2.85-2.61-4.04-4.04-1.66-2.14-4.04-3.81.71-5.7,6.42-2.38,4.04-6.9.48-9.28-6.18-4.52-8.09-10.23-9.28-17.12-.95-4.76-1.9-10.23-6.66-14.28-7.37,10.71-5.47,25.22-15.7,33.77-1.18.95-.71,3.1.71,4.04,8.33,5.24,1.43,8.56-1.66,11.89-3.81,3.81-9.28,10.94-7.13,12.85,8.56,7.37-.71,8.8-3.1,12.36-2.14,3.1-4.99,5.71-7.85,8.09-2.61,2.38-4.04,7.61-8.56,5.71-4.04-1.67-5.47-6.19-5.47-10.46,0-5.95-1.9-10.95-5.7-15.94-2.62,3.33-2.85,6.9-3.57,10.7-1.43,9.75-5,11.18-12.37,4.76-4.76-4.28-10.46-8.56-12.37-16.41,4.52.24,8.33.48,12.13.48,2.14,0,5,1.19,5.94-1.67.95-2.61-1.18-4.27-2.85-5.7-4.52-4.04-9.75-7.37-13.79-11.89-3.33-3.81-9.04-6.66-8.09-13.55,4.76-.24,9.28,5.23,12.13.71,3.57-5.24-3.33-7.38-5.71-10.71-2.14-3.09-4.75-5.7-7.13-8.8-1.42-1.91-2.61-5,.71-5.24,9.52-1.19,4.52-5.23,3.09-9.75-2.61-7.61-14.98-13.56-4.99-24.02.23-.24,0-.71-.24-1.19-5.24-9.03-4.76-20.45-12.61-29.25-.71,1.67-.95,2.62-1.43,3.33-8.32,16.41-2.85,37.34-17.36,51.85-1.67,1.66-2.38,5.47,1.91,5.94,12.12.95,4.75,6.42,2.14,9.99-2.38,3.33-6.18,5.47-9.04,8.56-5.47,6.42-4.04,9.99,4.04,11.65,2.14.48,6.9-.95,6.19,2.85-1.43,6.42-5.71,11.65-12.85,12.85-6.9,1.18-9.27-5.24-8.56-9.52,1.43-9.75.24-18.31-2.38-27.82-3.57-12.61-.24-27.59-13.55-36.86-1.43-.95-2.14-4.28-1.91-6.43,1.19-7.13-2.38-12.6-5.94-17.84-3.57-5.24-3.81-15.94-9.04-15.46-7.13.48-4.52,10.7-5.94,16.41-1.67,5.94-15.22,10.46-3.09,18.79.24.24-1.19,3.33-2.38,4.75-4.99,6.19-10.23,12.13-15.7,17.84-.95,1.18-1.42,4.52-4.75.95-8.56-9.27-20.22-15.45-27.59-26.16-1.66-2.38-4.76-4.51-3.57-7.84,1.43-3.81,5.24-2.14,7.85-2.14,6.18.24,12.13.71,16.18-5.7-9.04-5.95-15.22-15.46-24.74-21.17-3.57-1.9-5.23-5.94-4.52-9.75.71-5,5.95-3.09,9.28-4.52,2.85-1.19,6.66.95,9.75-2.38-4.75-7.13-14.75-5.95-19.27-12.85-3.09-4.52-11.18-7.37-9.51-12.84,1.43-4.76,9.04.48,13.32-1.67.71-.24,1.19-.48,2.62-1.19-2.62-4.04-4.28-8.56-8.09-11.89-11.18-9.76-16.89-22.83-20.93-36.87-.71-2.85,2.14-8.32-3.34-7.84-5.47.23-3.33,5.94-3.81,9.27-1.66,9.99-2.14,20.46-9.51,28.3-2.85,3.1-7.61,5.24-6.9,9.76,1.18,5.47,7.37,1.9,9.27,3.33,2.14,20.69-19.74,21.64-27.35,34.96,7.13,4.51,15.45.24,22.36,4.51-5.71,10.23-13.08,17.6-21.89,23.79-4.99,3.57-14.27,5.71-12.36,12.61,1.66,5.94,10.7,3.33,16.41,3.81,2.14.24,5-.95,6.19,1.42,1.66,3.33-1.91,4.52-3.33,6.43-7.61,9.03-18.08,14.75-22.36,27.58-3.33,9.76-.48,10.94,7.13,11.65,2.14.24,6.18-.48,5.94,3.33-.24,6.19-5.94,7.37-9.99,9.76-4.76,2.85-9.04,7.61-15.46,5.23-.48-.24-1.43-1.42-1.19-1.66,1.19-2.38.95-4.04,0-5.47,8.8-4.04,9.28-4.28,12.61-8.33-3.57-3.33-8.09-5.7-12.85-7.85,0-2.14-1.9-4.27-5.7-7.84,2.14,0,4.04,0,5.94-.24,3.33-.48,7.37,1.66,9.52-1.91,2.38-4.04-2.38-5.7-3.57-8.8-3.1-6.9-8.33-11.41-14.98-14.75-.95-.47-2.14-1.18-3.09-1.66-1.67-1.19-3.34-2.38-4.76-3.81-1.43-1.67-2.38-3.81-2.38-6.66,5.95-3.57,11.65,1.42,18.08.95-2.14-5.47-4.28-10.7-6.43-16.17.71-.48,1.19-1.19,1.43-1.91.71-3.09-2.38-4.75-4.76-6.42-3.33-8.33-6.66-16.89-10.23-25.21,2.14-.71,4.76-2.14,7.37-5.47-5-4.04-9.75-8.33-14.51-12.37-2.61-6.66-5.47-13.32-8.09-20.21,13.32-4.04,2.85-9.28.95-13.56-1.91-4.75-5.47-9.03-7.37-14.03-.48-1.18-.95-2.61-1.43-3.81,7.37-8.33,13.55-17.36,19.74-26.64-8.33,5.71-15.46,12.61-22.36,19.74-2.38-7.13-4.28-14.27-4.52-21.88,0-1.91-.48-5-3.57-5-2.85,0-3.81,2.62-3.81,4.76-.24,9.51-8.56,15.46-9.04,24.26-6.18-3.81-10.94-8.56-15.22-13.8.24,0,.24-.24.48-.24,14.98-10.46,27.83-23.54,39.72-37.34,6.66-7.85,11.42-17.84,22.36-18.55,17.6-.95,27.82-11.89,37.58-24.26,2.38-2.86,5.94-4.76,8.56-7.37,10.71-11.18,25.92-19.03,29.5-36.39,5.23,10.23,5.7,39.25,1.9,48.76-1.67,4.04-4.76,4.52-7.37,6.19-5.94,3.33-12.37,6.18-16.89,13.32,7.61-.95,12.13-6.66,19.27-6.42-2.61,21.4-22.36,32.1-29.49,50.66,11.18-.71,19.5-6.18,27.59-11.42,6.9-4.51,13.79-9.27,20.45-14.27,2.14-1.66,3.57-3.57,6.43-.48,11.65,13.32,26.4,24.02,33.3,41.15,1.66,4.04,4.75,7.61,7.61,11.18,17.12,21.41,37.82,39.48,57.08,58.99,8.09,8.08,17.61,14.75,30.68,20.21-3.09-8.09-5.23-14.51-7.85-20.69-7.61-18.79-17.36-36.86-22.36-56.84-.71-3.09-3.09-6.9.24-9.28,3.09-2.14,6.43-.71,9.52,1.19,9.27,5.94,19.27,10.46,28.06,17.12,13.56,10.23,24.74,22.83,35.44,36.39.71-5.47,2.14-11.42,0-15.7-10.7-21.88-16.18-46.38-29.97-66.83-16.89-24.98-16.65-27.12,6.66-47.1,1.19-.95,2.38-1.9,3.57-2.85,15.46-13.32,24.97-30.68,36.39-47.33-3.09-1.19-4.04.95-5.47,1.9-22.12,15.94-42.1,34.49-67.31,46.14-3.33,1.43-5.71,4.04-9.76.24-11.18-9.76-21.17-20.7-34.01-28.07-4.27-2.38-4.27-5.23-.95-9.03,5.94-6.9,11.42-14.03,16.88-21.4,32.35-42.58,68.26-82.29,103.46-122.49,21.64-24.73,39.95-52.56,67.54-71.59,2.62-1.66,3.81-6.9,7.61-4.99,3.81,1.9,2.62,6.9,2.14,10.46-.95,4.76-2.61,9.51-4.76,13.79-4.99,9.52-8.8,19.27-10.7,29.73-3.57,21.88-14.27,40.44-25.92,58.27-3.09,4.75-7.37,9.27-8.33,16.64,13.08-3.57,22.83-10.46,32.11-18.07,6.66-5.7,10.23-2.85,12.84,3.09,4.04,9.28,6.42,19.5,11.18,28.31,3.57,6.42,2.38,10.46-2.85,14.03-12.61,9.04-19.27,21.88-25.69,35.2-8.8,17.84-17.6,35.91-26.4,53.75-6.42,13.32-12.85,26.88-19.27,40.43,13.79-10.46,25.92-22.12,37.82-34.01,5.47-5.47,8.33-3.81,9.75,2.86,2.14,9.99,2.38,19.5-2.61,29.49-7.85,15.94-16.41,31.39-24.97,47.09-2.62,4.76-6.43,9.28-5.95,16.41,20.46-14.98,41.62-27.35,59.22-44.95,3.1-3.09,4.76-3.81,7.37.95,6.67,12.36,14.28,24.02,20.46,36.63,4.52,8.8,3.81,17.36-5.7,23.78-5.24,3.57-9.76,8.33-13.8,13.32-14.98,18.07-29.73,36.39-44.47,54.7-7.61,9.52-17.36,17.61-21.64,29.97,9.99-14.03,26.88-16.64,39.48-26.16,21.17-15.93,44.01-29.73,62.79-48.52,2.61-2.61,5.94-7.37,11.41-2.38,20.22,19.27,44.95,31.63,68.5,45.67,10.46,6.18,22.36,10.23,36.39,16.41-6.18-10.23-10.46-17.36-14.98-24.73,18.55,3.33,35.44,9.27,52.56,14.75-13.79-25.45-22.12-51.61-31.15-77.53-8.8-24.98-16.89-50.9-36.39-70.88-5.23-5.47-7.84-13.32-5.47-22.59,1.66,1.42,3.09,1.9,3.81,3.09,11.65,21.4,32.34,32.34,51.37,45.19,13.79,9.03,20.46,21.88,19.5,38.52-.24,3.34-.48,6.9,0,10.23.48,2.85-2.38,7.85,3.33,7.61,4.28,0,5-4.04,5.47-7.61.95-6.67,1.9-13.32,2.38-20.22.48-6.9,4.04-8.56,9.75-6.18,12.37,4.99,25.69,5.23,38.29,9.75,8.8,3.09,18.55,2.85,27.83,3.81,3.57.48,7.13-1.66,3.57-5-7.85-7.13-9.28-18.55-16.18-25.69-21.17-21.64-31.4-49.7-46.61-74.68-5.24-8.56-5.24-20.45-.24-26.87,14.98-19.74,34.72-34.25,57.79-44.48,4.28,21.41,5.71,41.86-3.09,61.84-3.09,6.9.24,10.46,7.37,7.61,8.8-3.57,7.85-.71,6.9,6.66-1.42,12.85-8.09,23.31-11.89,35.2-.71,2.38-4.28,5.47-1.18,8.08,2.61,2.14,4.75-.95,7.13-2.14,5.47-2.38,11.18-4.76,16.41-7.61,5-2.61,8.33-2.38,10.23,3.81,7.37,25.45,26.64,41.86,45.9,57.32,26.88,21.4,55.42,41.15,78.25,67.31,9.28,10.7,21.65,13.79,34.96,16.17.95-9.51-8.33-14.27-9.51-22.83,17.12,6.18,23.3,24.02,39,34.24-3.33-10.94-5.47-19.5-8.8-28.06-8.33-22.36-21.65-42.34-30.68-64.22-9.04-22.36-21.88-42.1-37.58-60.41-13.32-15.46-27.83-30.44-37.58-48.52-12.13-22.36-26.88-42.1-45.43-58.98-11.65-10.46-21.17-22.59-29.25-35.91-2.61-4.28-5.95-7.85-8.56-11.89-6.9-9.52-14.27-9.76-22.36-1.67-15.94,15.94-35.43,27.12-53.98,39.48-24.26,16.41-24.5,16.41-45.19-5.71-21.41-22.83-40.68-47.8-69.93-62.31-7.85-3.81-12.6-11.65-15.69-20.22-4.52-12.37-9.76-24.73-18.32-34.96-25.45-30.92-47.8-64.69-76.34-93.24-6.42-6.42-10.7-6.18-16.65.24-13.32,14.04-25.45,29.26-41.15,40.91-12.84,9.76-23.54,21.41-32.58,34.73-8.56,12.37-16.18,25.92-27.12,36.39-42.57,41.38-77.06,89.66-113.92,135.81-5.24,6.42-7.61,5.95-12.85.95-10.46-10.46-21.64-20.22-32.34-30.21-11.89-10.94-16.89-11.18-27.35.24-16.41,17.36-34.25,33.3-49.47,52.09-12.6,15.46-25.45,27.59-47.57,32.82-21.17,5-37.34,19.98-51.85,36.63-28.54-49-56.84-98.22-85.14-147.45-3.33-5.95-6.19-12.13-11.18-17.13-6.19-6.18-12.13-6.42-18.79-.47-18.31,16.41-37.1,32.58-55.65,48.75-10.95,9.52-12.13,9.28-20.7-2.38-13.79-19.03-26.4-39-41.62-56.84-16.88-19.74-31.15-40.91-41.15-64.69-7.85-19.03-19.97-35.2-34.49-49.95-15.45-15.7-34.24-27.83-46.61-46.62-9.28-14.27-17.84-29.01-27.83-42.81-9.75-13.56-16.88-13.32-27.35-.71-38.06,45.19-73.5,92.28-105.36,142.23-23.31,36.63-50.9,69.68-87.53,94.18-4.28,2.85-7.37,5.23-10.94-.48-9.03-14.27-23.55-23.31-34.49-36.15-9.27-10.7-15.69-9.99-24.97,1.42-7.37,9.04-13.32,19.27-19.98,28.78-30.44,43.52-64.45,84.19-98.22,125.1-17.13,20.7-34.96,41.15-48.28,64.93-5.24-4.04-7.85-8.8-9.76-13.8-8.09-20.69-14.51-41.85-19.27-63.5-.71-3.81-.71-9.75-5.94-9.03-4.52.71-3.09,6.18-3.09,9.99.24,15.94-3.09,30.92-7.37,46.38-4.28,14.98-13.56,26.4-19.74,41.38,3.57,0,6.18-.24,8.8,0,4.27.48,10.94-2.38,12.84,1.42,2.38,5-3.81,9.04-6.66,13.32-1.19,1.9-3.33,3.09-5,4.75-7.85,7.14-17.36,11.65-27.82,18.32,9.99,1.42,16.64,6.9,25.45,5.7,3.33-.48,8.33-1.66,9.99,3.09,1.43,4.04-2.85,5.95-5.23,8.09-10.23,9.99-20.93,19.74-31.4,29.73-2.61,2.38-4.76,5.47-3.09,9.04,1.66,3.81,5.23,2.14,8.09,2.38,7.85.71,15.7,1.19,24.26,1.91-13.55,20.21-31.87,31.15-55.18,32.82,14.03,23.78,34.96,4.28,53.75,11.18-21.89,17.6-44.47,31.87-63.26,51.37,5.7,1.67,10.23.48,16.88-.95-8.33,8.8-5.24,10.94,3.33,9.99,10.46-.95,20.93-2.14,33.3-3.33-15.7,21.88-37.58,33.53-58.51,49.46,18.55,3.81,33.06-7.61,50.42-5.94-8.08,8.56-17.36,12.61-24.49,19.27-14.03,13.08-24.97,29.01-40.43,40.67-2.62,1.9-5.71,3.33-6.66,7.85h909.96c-.24.24-.71.48-.95.71,352.95-.71,706.61-.71,1060.52-.71-4.76-10.46-13.08-16.89-21.17-23.79ZM400.41,1339.06c.95-2.38,2.86-1.43,6.67,0,3.33,1.19,8.56.24,13.79,0,3.09-.24,7.37-3.57,9.03.71,1.67,4.28.71,9.03-2.85,12.6-2.85,2.86-5.23,6.43-10.46,4.04-6.66-2.85-10.23-8.8-14.98-13.32-1.19-.71-1.67-2.85-1.19-4.04ZM420.4,1387.58c-5.94-.95-15.94,2.38-15.7-6.18.24-7.13,10.23-4.28,15.7-5.95,3.57,2.14,9.99-2.61,10.7,3.57.48,5.95-4.04,9.28-10.7,8.56ZM507.21,1346.43c-10.94.71-17.13-6.18-24.74-14.27,9.04-.24,14.28,9.51,22.83,1.9,2.86-2.38,8.33,3.09,9.04,7.85s-3.57,4.28-7.13,4.52ZM560.25,1361.42c-1.67-.24-2.62-4.76-1.19-7.13,3.57-5.47,8.09-3.09,13.79-1.19-4.76,3.81-6.66,9.52-12.6,8.33ZM694.39,1389.96c-6.9,4.28-13.08,8.09-5,17.61-12.13-6.67-6.18-14.75-3.57-22.12,1.19-3.57,5.7-3.81,9.04-1.91,3.09,1.91,1.66,5.24-.48,6.42ZM679.88,1362.37c-11.89,1.9-11.89-9.04-13.08-17.6,11.18-1.9,21.64-3.57,34.96-5.94-7.13,10.7-10.7,21.88-21.88,23.55ZM763.35,1378.54c10.46,3.57,20.22.48,31.16,2.62-16.18,17.36-19.5,17.12-31.16-2.62ZM860.87,1240.59c-4.28,7.85-6.18,15.46-7.37,23.31-.71,5-1.18,10.7-7.61,10.7-6.18.24-9.75-4.28-10.7-9.99-1.43-7.13-4.28-13.55-9.99-19.5-6.19,9.52-5.24,22.59-15.46,29.49-1.91,1.19-1.67,3.33.48,4.52,10.94,5.47,1.18,9.75-1.43,13.08-4.52,6.43-14.03,7.14-19.74,14.28,7.14,4.99,14.98,1.18,23.07,4.04-10.23,9.51-19.74,19.26-24.49,33.3h18.07c-5.47,11.18-17.6,14.75-21.4,24.49-13.56-7.61-26.64-15.22-34.01-31.63h16.17c2.38,0,5-.71,5.47-3.1.71-2.85-.71-4.75-3.81-5.94-8.33-3.09-12.61-12.13-21.4-14.75-2.62-.71-4.28-3.81-3.57-6.42.71-2.62,3.81-1.67,5.94-1.43,10.23.48,11.65-3.09,6.9-12.13-3.09-5.94-6.66-10.7-11.42-15.22-9.51-9.27-9.27-10.23,3.33-15.45,1.43-.48,2.86-.71,5-1.19-7.13-11.89-17.6-20.93-21.17-34.49-1.67-5.7-1.19-11.18-1.91-16.64-.24-1.67.24-4.04-2.38-4.28-2.14-.24-3.57.95-4.28,2.85-1.43,4.76-4.28,9.51-3.81,14.03.95,12.61-4.76,21.64-13.32,29.97-5.47,5.24-5.71,8.33,3.09,9.52,7.61.95,9.27,4.75,4.04,11.65-6.43,8.56-15.7,12.61-26.16,17.13,7.37,8.09,16.88,3.81,24.02,7.85-2.61,16.41-19.27,17.84-28.78,27.12-1.67,1.42-3.33.71-3.81-.48-4.52-9.52-14.03-13.56-20.69-20.7-4.52-4.99-3.81-8.56,4.27-8.8,6.9-.24,14.04-1.43,21.65-2.38-13.8-15.94-31.16-26.16-44.24-41.38,8.8-.71,17.13-4.04,25.45,0,2.38.95,4.51.95,6.18-1.18,2.38-2.62.48-5.24-.95-7.14-2.61-3.09-5.94-5.94-10.23-6.66-5-.71-9.28-3.33-12.85-6.66-3.81-3.33-11.18-5.47-9.99-11.18,1.43-6.42,9.04-2.61,14.98-5.94-17.84-16.89-23.07-39.48-28.3-62.56-9.76,1.67-13.32,8.09-14.04,17.13-1.18,14.51-5.7,27.35-19.03,35.67-4.04,2.62-7.61,6.19-9.51,13.08,5.24,0,9.99-.24,14.51,0,2.38,0,5.71-1.43,6.42,2.38.71,3.09-.47,5.24-3.33,7.37-8.32,6.66-16.17,14.27-25.45,22.36,5.24,1.91,8.8,2.61,12.13,4.28,3.33,1.67,8.8-3.09,9.51,2.38.71,5-2.38,10.23-6.42,13.8-3.09,2.61-6.9,5.23-10.7,5.94-11.65,2.14-11.65,12.13-14.98,20.22-1.91,4.52,1.66,4.28,4.04,4.52,5.94.47,12.13.71,19.5,1.18-7.14,9.52-15.7,15.7-25.22,22.83-.71-6.66-9.99-10.7-2.85-18.31.71-.71-.24-4.04-1.43-5.24-12.84-11.89-4.27-32.1-17.36-43.76-1.43-1.19-1.9-3.33-.48-5.24,3.57-4.75-1.42-4.27-3.33-5.94-3.81-3.33-5.47.48-6.9,2.61-4.76,6.67-7.13,14.28-7.85,22.36-1.19,13.08-5.94,24.26-18.31,31.4,4.28,5,11.42,2.14,15.22,6.66-3.09,4.52-10.46,3.33-11.89,9.76-.48,1.9-3.57,1.42-5,.24-7.13-5.24-13.32-11.65-16.41-19.98-2.38-5.95,3.57-3.81,6.42-4.28,3.81-.48,9.04-.24,10.23-3.57,1.43-4.04-3.81-5.71-6.42-8.33-3.81-3.57-7.85-7.13-11.65-10.94-8.8-9.51-8.33-11.65,3.09-17.12,3.57-1.67,5-3.33,3.33-7.85-2.14-6.19-5.23-11.89-10.23-16.18-5.23-4.52-5.94-10.94-3.09-15.46,3.33-5.23,2.14-8.56-.71-11.89-7.13-7.61-8.09-16.64-7.61-26.4.24-2.61,0-5.47-.71-7.84-.95-2.86-1.66-6.67-4.99-7.14-4.52-.47-3.81,4.52-4.28,6.67-2.38,16.41-9.75,30.68-18.31,44,3.57,4.28,7.37.95,10.94,2.38,1.66,17.84-13.32,25.22-24.73,35.92,8.08,3.57,15.93,3.57,24.73,5.47-6.42,8.56-9.99,17.84-21.17,20.46-6.19,1.42-6.67,9.27-7.61,14.03-.71,3.81,4.99,5.7,9.51,5.7,6.18,0,6.42,2.14,3.57,7.85-3.57,6.9-10.23,9.99-14.75,15.46-3.09,3.57-21.4-7.13-19.5-11.42,3.09-7.37-2.14-8.09-7.61-11.65h15.7c3.81,0,6.18-.95,7.13-5.23.95-4.28-.71-4.76-3.81-7.13-8.09-6.19-15.7-13.32-22.36-20.7-5.94-6.66-4.04-11.65,4.52-14.75.24-.24.71,0,1.19-.24,4.04-2.14,11.18-3.81,11.65-6.66.95-5.24-6.43-5-9.76-7.61-5.47-4.28-10.46-8.8-15.22-13.55-4.52-4.52-4.52-7.61,2.85-8.8,5.47-.95,14.75.95,15.46-3.57,1.19-6.18-5.94-11.18-10.46-16.18-5.7-6.18-13.55-9.75-17.36-17.6-.95-1.67-3.81-3.57-.24-5.24,1.66-.71,3.81-.71,4.76,1.67,3.09,9.27,5.23,4.52,10.94,1.19,49.7-29.02,74.92-80.39,111.31-121.3,19.03-21.4,34.96-45.43,53.52-67.55.47,39.48-7.14,75.63-45.9,100.13,8.09,1.91,10.23-1.66,13.08-3.57,2.38-1.66,4.28-6.66,8.09-2.38,2.85,3.09,2.38,6.9,0,10.46-7.13,11.42-14.03,23.31-21.17,34.73-3.81,6.42-7.61,12.84-9.04,21.17,5.24.48,8.09-2.38,10.94-4.99,7.61-6.9,15.7-13.32,22.36-21.17,9.04-10.46,21.65-11.18,35.2-13.79-8.33,27.12-25.45,50.66-33.53,77.77,15.46-17.12,33.06-31.63,46.61-49.95,7.85-10.7,17.61-19.74,26.64-29.73,3.81-4.27,7.61-5.47,12.37-.71,7.85,7.61,17.36,14.03,24.26,22.36,15.21,18.79,40.19,21.88,57.31,39.48,2.85-17.36-6.66-28.78-13.79-39-16.89-24.74-23.79-53.52-37.82-79.2,6.66-3.09,9.04,1.18,11.18,4.51,4.28,6.9,7.37,6.9,12.37.48,15.69-20.21,31.87-40.19,46.61-61.6-24.26,16.64-46.37,36.15-72.3,50.18-3.57-7.37-7.61-16.17-12.13-24.97-3.81-7.61,1.18-12.37,5.7-16.64,9.76-9.04,20.46-16.89,30.21-25.93,34.73-32.34,59.22-72.54,85.38-111.54,18.55-27.58,37.1-55.18,63.03-80.15,14.51,91.8-22.36,164.34-78.49,230.94,19.97-20.69,43.76-35.67,64.69-56.13,6.66,20.93,7.85,39.95.48,60.17-16.88,45.19-42.1,85.14-74.92,120.35-2.85,3.09-6.66,5.94-7.37,14.03,12.85-13.55,28.54-17.84,41.86-26.88,10.7-7.13,19.98-15.46,33.06-20.21,12.13-4.52,21.17-16.65,32.58-24.02,7.61-4.76,14.98-9.99,23.31-15.7,2.14,7.13,0,13.08-2.85,18.55-12.37,23.31-23.31,47.33-37.82,69.69-15.22,23.54-24.02,50.42-40.19,73.49-1.19,1.66-5.71,5.94-.71,8.56,3.81,1.9,6.66-.71,9.75-3.33,23.79-20.7,43.29-45.19,63.03-69.69.71-.95,1.67-1.42,3.57-3.09,8.56,34.25,21.4,66.59,26.63,100.37-4.75-3.57-10.23-8.09-14.27-15.46ZM980.98,1418.74c-1.9,3.57-5.24,1.9-8.33,1.42-20.93-1.9-41.85-3.81-63.5-5.7,6.67-10.94,14.27-20.22,24.5-28.31-9.28-4.04-17.61-.48-25.45-.95.95-11.42,5.7-20.22,17.36-24.5-5.47-4.52-9.99-1.66-13.79-4.04,4.75-10.94,19.74-11.89,23.3-24.97-6.9.24-13.08,2.14-19.03-.95-2.38-1.19-6.66.48-6.42-4.52.24-3.33,1.91-4.75,5.71-5.7,7.37-1.67,13.55-6.18,20.21-11.18-4.28-4.76-10.46-3.33-16.41-5.47,4.75-7.61,9.51-14.75,13.79-22.12,2.85-4.99,3.33-8.56-1.67-13.79-8.8-9.04-6.66-21.17-5.23-32.34.48-4.76,2.14-9.28,3.81-14.98,15.22,12.36,28.78,24.49,26.16,46.37-.71,5.95,4.04,10.23,6.42,15.22-2.85,4.52-7.13-.71-10.94,1.91,4.76,7.13,13.32,10.46,17.6,18.07-4.52,1.42-8.09-3.81-13.08.24,5.94,5.7,11.89,11.42,17.84,17.12,3.09,2.85,5,6.66,3.57,9.99-1.19,3.1-5.47.48-8.33.71-2.14.24-4.52-.24-6.9,0-2.14.24-5-.71-5.7,2.14-.71,2.61,1.9,4.04,3.33,5.47,5.47,5,12.84,8.09,17.12,14.75-1.9,4.76-6.66-.95-8.8,3.57,0,0-.48,1.19-.24,1.19,5.7,4.52,11.42,27.12,8.8,34.01-1.18,3.09-3.09,3.81-6.18,3.33-3.57-.48-6.9-2.85-12.37-.95,6.9,5.95,13.08,11.18,19.03,16.41,2.85,2.14,5.95,4.76,3.81,8.56ZM989.06,1085.53c-19.5-26.64-38.53-53.52-63.03-75.87-4.28-4.04-4.76-8.33-3.81-13.32.95-4.52,5.23-3.81,8.56-3.81,8.56,0,7.6-4.28,4.27-9.28-10.46-15.46-21.88-29.97-35.2-43.04-2.38-2.38-8.8-5-3.57-9.52,4.75-4.04,7.37,1.91,9.51,4.76,33.77,44.71,62.32,92.75,89.43,141.51,3.09,5.47,5.95,11.18,6.19,18.07-6.43-.71-9.28-5.23-12.37-9.51ZM1060.89,1338.11c-8.09-.24-9.99,5.71-11.18,11.89-1.19,5.71.95,9.75,7.13,10.7,4.76.71,4.28,3.33,2.61,6.42-3.57,6.19-6.9,12.37-10.46,18.56-4.52-1.19-5.71-4.28-7.61-7.14,1.9-3.57,8.33.48,8.33-5.47,0-4.76-.95-8.8-5.24-11.65-8.33-5.7-16.41-11.18-7.85-23.31,2.85-4.04,1.67-8.56-5.47-8.8-5.47-.24-13.32,1.9-15.7-4.04-3.33-7.85,4.28-12.85,8.8-18.31,2.14-2.62,4.27-5,6.9-8.09-8.8-2.14-15.94,4.04-23.55,1.42,7.37-8.09,12.37-18.79,24.26-22.83-15.46-2.14-16.65-2.61-10.71-17.6,7.13-18.31,5.95-37.1,7.85-55.89,1.19-10.7.71-21.4,5.24-31.16,2.85-6.18-3.09-11.89.48-17.84,5.7,5,4.04,12.13,4.28,17.84,1.18,23.55,11.65,44.48,16.88,66.6,1.67,6.9,1.91,6.9-3.57,13.08-1.43,1.67-.24,3.57.48,5.24,4.52,10.7,8.8,21.64,14.03,32.1,3.57,7.13.48,7.61-6.42,5.95,7.13,11.18,7.61,22.36,9.03,33.3.71,5.7-1.9,9.27-8.56,9.03ZM1094.19,1098.13c-13.08-16.64-25.45-34.24-38.77-51.13-4.76-6.18-3.81-10.23,1.91-14.98,14.03-12.13,27.58-24.73,41.62-37.1,3.57-3.09,7.37-9.51,11.65-6.9,5.24,3.09,3.34,10.46,1.19,15.46-4.28,11.18-6.42,22.36-5.47,34.25.95,12.12,4.04,23.78,11.89,33.53.95,1.18,1.67,3.33,2.62,3.33,17.36,1.42,13.55,13.79,12.36,24.49-1.42,11.65-3.33,23.07-7.61,34.49-13.79-9.99-21.88-23.55-31.39-35.44ZM1183.38,1319.32c-1.9,2.38-1.19,5,1.67,6.19.71,4.04,1.18,8.32,1.42,12.6-.24.24-.48.71-.71.95-2.85,0-5.94-4.52-10.94-2.85,1.91,2.38,3.81,4.75,5.71,7.13-3.81,2.61-8.33,4.52-12.13,7.85,7.61,2.14,18.55-.48,19.74,4.99.95,4.52-2.62,6.9-6.9,9.04-3.34-1.43-6.67-3.09-10.23-4.52-1.18,4.52-.95,7.61.48,9.99,0,0-.24,0-.24.23-1.42,1.19-2.61,2.86-3.57,4.28-4.99-.24-9.51,1.19-14.27,4.28-2.14,1.43-4.76,2.61-6.9,4.04-6.19,4.04-14.27,5.47-18.55.24-3.81-4.76,3.33-9.51,6.42-14.27,1.91-3.09,7.37-4.76,5.94-8.8-1.9-4.76-7.13-3.09-11.18-3.09h-9.51c0-13.55,13.79-17.36,19.27-28.54-7.61.48-14.51,1.18-22.12,1.66,3.81-12.36,5.7-24.49,19.74-29.49-7.85-5.7-13.56.95-19.98-1.66,6.66-9.76,20.93-12.37,23.07-26.16-4.28-.71-8.56-1.19-12.85-2.14-2.14-.48-5.47.95-5.23-3.81.23-3.09-.24-5.94,3.33-7.37,3.09-1.19,6.66-1.9,9.51-3.57,2.85-1.67,6.42-2.85,5.71-7.37-.48-5-4.04-3.33-6.9-3.57-4.04-.24-4.04-2.85-3.33-5.47,1.43-7.13,1.43-14.98,5-20.93,7.61-13.32,4.52-27.83,7.85-41.62,2.85-12.13,1.66-24.73,6.42-40.19,10.7,32.1,12.61,63.74,21.4,92.75-.71,2.61-1.18,5.24-1.9,7.85-.95-.24-1.67-.71-2.61-.71-7.85-.71-8.33,2.62-5.47,8.8,1.19,2.85,3.09,5.23,5,7.37-.24,2.85-.24,5.94,0,8.8.95-1.91,1.9-3.81,2.85-5.71,3.81,4.28,7.85,8.33,9.99,14.03-6.9,2.14-11.89-5.23-18.55-3.33,2.86,17.37,26.64,17.37,29.25,35.44-8.56-1.91-15.69-7.85-25.92-7.37,10.94,5.7,17.13,14.03,20.22,24.02ZM1462.12,1341.44c-4.75,6.9-14.03,8.8-17.84,16.89-.95,2.14-4.04-.71-5.94-1.67-8.33-4.04-14.03-11.18-18.07-19.74,12.36-1.91,24.97,1.66,37.1-2.62,1.9-.71,4.75-.71,5.94,1.91.95,1.9,0,3.57-1.19,5.23ZM2039.35,1359.04c9.04,1.42,16.65-4.28,25.45-1.67-6.9,14.75-11.89,15.22-25.45,1.67Z"/>
    </g>
  </g>
  <rect class="st8" x="80.28" y="1430.88" width="2339.45" height="600.99" rx="31" ry="31"/>
  <rect class="st11" x="132.21" y="1474.77" width="2235.58" height="513.21" rx="31" ry="31"/>
  <g>
    <path class="st5" d="M209.27,1714.65v-192.63h40.2v192.63h-40.2Z"/>
    <path class="st5" d="M295.25,1714.65v-192.63h43.55l76.49,126.46v-126.46h40.2v192.63h-43.55l-76.49-126.46v126.46h-40.2Z"/>
    <path class="st5" d="M492.9,1700.14v-21.77h86.54c5.58,0,8.38-2.79,8.38-8.38v-20.1c0-5.4-2.33-8.47-6.98-9.21l-54.44-11.17c-22.33-4.47-33.5-19.45-33.5-44.95v-15.63c0-31.27,15.63-46.9,46.9-46.9h63.93l18.7,14.52v21.78h-80.96c-5.58,0-8.38,2.79-8.38,8.38v18.15c0,5.21,2.32,8.28,6.98,9.21l54.44,10.89c22.33,4.47,33.5,19.45,33.5,44.95v17.87c0,31.27-15.63,46.9-46.9,46.9h-69.51l-18.7-14.52Z"/>
    <path class="st5" d="M649.23,1558.32v-36.29h157.45v36.29h-58.63v156.33h-40.2v-156.33h-58.63Z"/>
    <path class="st5" d="M804.45,1707.11l57.23-185.09h61.42l57.23,185.09-5.03,7.54h-33.5l-11.72-39.08h-75.38l-11.72,39.08h-33.5l-5.03-7.54ZM865.59,1639.28h53.6l-24.57-80.96h-4.47l-24.57,80.96Z"/>
    <path class="st5" d="M1008.24,1714.65v-192.63h43.55l76.49,126.46v-126.46h40.2v192.63h-43.55l-76.49-126.46v126.46h-40.2Z"/>
    <path class="st5" d="M1198.07,1558.32v-36.29h157.45v36.29h-58.63v156.33h-40.2v-156.33h-58.63Z"/>
    <path class="st5" d="M1449.33,1667.75v-98.83c0-31.27,15.63-46.9,46.9-46.9h63.65c31.27,0,46.9,15.63,46.9,46.9v98.83c0,31.27-15.63,46.9-46.9,46.9h-63.65c-31.27,0-46.9-15.63-46.9-46.9ZM1489.53,1669.99c0,5.58,2.79,8.38,8.38,8.38h60.3c5.58,0,8.38-2.79,8.38-8.38v-103.29c0-5.58-2.79-8.38-8.38-8.38h-60.3c-5.58,0-8.38,2.79-8.38,8.38v103.29Z"/>
    <path class="st5" d="M1649.76,1714.65v-192.63h131.77v36.29h-91.57v47.46h83.19v36.29h-83.19v72.58h-40.2Z"/>
    <path class="st5" d="M1812.8,1714.65v-192.63h131.77v36.29h-91.57v47.46h83.19v36.29h-83.19v72.58h-40.2Z"/>
    <path class="st5" d="M1975.83,1714.65v-192.63h131.77v36.29h-91.57v39.08h83.19v36.29h-83.19v44.67h91.57v36.29h-131.77Z"/>
    <path class="st5" d="M2144.45,1714.65v-192.63h93.8c31.27,0,46.9,15.63,46.9,46.9v31.82c0,23.27-8.65,37.78-25.96,43.55l31.55,61.98-4.75,8.38h-34.62l-34.06-67h-32.66v67h-40.2ZM2184.65,1611.36h51.93c5.58,0,8.38-2.79,8.38-8.38v-36.29c0-5.58-2.79-8.38-8.38-8.38h-51.93v53.04Z"/>
  </g>
  <g>
    <path class="st5" d="M627.23,1943.71v-122.74h83.96v23.13h-58.35v30.24h53.01v23.13h-53.01v46.25h-25.62Z"/>
    <path class="st5" d="M765.62,1913.82v-92.86h25.62v94.28c0,3.56,1.78,5.34,5.34,5.34h34.87c3.56,0,5.34-1.78,5.34-5.34v-94.28h25.62v92.86c0,19.92-9.96,29.88-29.88,29.88h-37c-19.92,0-29.88-9.96-29.88-29.88Z"/>
    <path class="st5" d="M926.07,1943.71v-122.74h59.77c19.92,0,29.88,9.96,29.88,29.88v20.28c0,14.82-5.51,24.08-16.54,27.75l20.1,39.49-3.02,5.34h-22.06l-21.7-42.69h-20.81v42.69h-25.62ZM951.69,1877.89h33.09c3.56,0,5.34-1.78,5.34-5.34v-23.13c0-3.56-1.78-5.34-5.34-5.34h-33.09v33.8Z"/>
    <path class="st5" d="M1076.92,1943.71v-122.74h27.75l48.74,80.58v-80.58h25.62v122.74h-27.75l-48.74-80.58v80.58h-25.62Z"/>
    <path class="st5" d="M1243.77,1943.71v-122.74h25.62v122.74h-25.62Z"/>
    <path class="st5" d="M1323.82,1844.09v-23.13h100.33v23.13h-37.36v99.62h-25.61v-99.62h-37.36Z"/>
    <path class="st5" d="M1477.51,1913.82v-92.86h25.62v94.28c0,3.56,1.78,5.34,5.34,5.34h34.87c3.56,0,5.34-1.78,5.34-5.34v-94.28h25.62v92.86c0,19.92-9.96,29.88-29.88,29.88h-37c-19.92,0-29.88-9.96-29.88-29.88Z"/>
    <path class="st5" d="M1637.97,1943.71v-122.74h59.77c19.92,0,29.89,9.96,29.89,29.88v20.28c0,14.82-5.51,24.08-16.54,27.75l20.1,39.49-3.02,5.34h-22.06l-21.7-42.69h-20.81v42.69h-25.62ZM1663.58,1877.89h33.09c3.56,0,5.34-1.78,5.34-5.34v-23.13c0-3.56-1.78-5.34-5.34-5.34h-33.09v33.8Z"/>
    <path class="st5" d="M1788.81,1943.71v-122.74h83.96v23.13h-58.35v24.9h53.01v23.13h-53.01v28.46h58.35v23.13h-83.96Z"/>
  </g>
  <line class="st0" x1="187.72" y1="1771.44" x2="2312.28" y2="1771.44"/>
  <polygon class="st8" points="533.08 1891.39 249.47 1877.89 533.08 1864.39 533.08 1891.39 533.08 1891.39"/>
  <polygon class="st8" points="1965.79 1868.84 2249.41 1882.34 1965.79 1895.84 1965.79 1868.84 1965.79 1868.84"/>
  <polygon class="st11" points="1250 2031.87 1288.22 2122.76 1386.48 2131.03 1311.85 2195.47 1334.35 2291.47 1250 2240.4 1165.65 2291.47 1188.15 2195.47 1113.52 2131.03 1211.78 2122.76 1250 2031.87"/>
  <polygon class="st11" points="989.36 2086.32 1005.77 2125.34 1047.95 2128.89 1015.91 2156.55 1025.57 2197.77 989.36 2175.84 953.15 2197.77 962.81 2156.55 930.77 2128.89 972.95 2125.34 989.36 2086.32"/>
  <polygon class="st11" points="812.38 2051 828.78 2090.02 870.96 2093.57 838.92 2121.23 848.59 2162.44 812.38 2140.52 776.17 2162.44 785.83 2121.23 753.79 2093.57 795.97 2090.02 812.38 2051"/>
  <polygon class="st11" points="1509.45 2087.05 1493.04 2126.07 1450.86 2129.62 1482.9 2157.28 1473.24 2198.49 1509.45 2176.57 1545.66 2198.49 1536 2157.28 1568.04 2129.62 1525.86 2126.07 1509.45 2087.05"/>
  <polygon class="st11" points="1686.43 2051.72 1670.02 2090.74 1627.84 2094.29 1659.88 2121.95 1650.22 2163.17 1686.43 2141.24 1722.64 2163.17 1712.98 2121.95 1745.02 2094.29 1702.84 2090.74 1686.43 2051.72"/>
</svg>